<svg width="150" height="24" viewBox="0 0 150 24" fill="none" xmlns="http://www.w3.org/2000/svg">
<g clip-path="url(#clip0_392_5958)">
<path d="M2.6466 22.7981L13.1039 4.61349H0V0.888916H18.1389V4.05011L7.90752 22.7981H2.6466Z" fill="#F6F6F6"/>
<path d="M33.3399 0.888916H28.7471L30.5174 5.37014L30.5319 5.33336L33.728 13.4085H27.2729L29.5483 7.7692L24.1478 9.77467L18.6223 22.7981H23.4959L25.8205 17.0392H35.1482L37.4397 22.7981H42.507L33.3399 0.888916Z" fill="#F6F6F6"/>
<path d="M47.4936 22.7981L38.3273 0.888916H43.3946L50.3015 18.1972L57.3699 0.888916H62.2112L52.9159 22.7981H47.4936Z" fill="#F6F6F6"/>
<path d="M64.1152 22.7981V0.888916H81.4795V4.83258H68.7952V9.8404H77.1546V13.6589H68.7952V18.8545H81.6086V22.7981H64.1152Z" fill="#F6F6F6"/>
<path d="M84.9326 0.888916H89.3867L100.619 15.0673V0.888916H105.009V22.7981H100.878L89.3544 8.15026V22.7981H84.9326V0.888916Z" fill="#F6F6F6"/>
<path d="M128.763 13.3146C128.763 14.7966 128.526 16.1477 128.053 17.3678C127.579 18.5879 126.907 19.6208 126.035 20.4664C125.136 21.3289 124.058 21.9957 122.872 22.4226C121.635 22.8811 120.263 23.1106 118.757 23.1111C117.229 23.1111 115.846 22.8816 114.61 22.4226C113.428 21.9984 112.354 21.3311 111.463 20.4664C110.579 19.587 109.897 18.5364 109.462 17.3834C108.988 16.1737 108.752 14.8174 108.752 13.3146V0.888916H113.432V13.3146C113.432 15.0047 113.921 16.361 114.9 17.3834C115.879 18.4059 117.176 18.9171 118.789 18.9171C120.403 18.9171 121.689 18.4059 122.646 17.3834C123.604 16.361 124.083 15.0047 124.083 13.3146V0.888916H128.763V13.3146Z" fill="#F6F6F6"/>
<path d="M132.507 22.7981V0.888916H149.871V4.83258H137.187V9.8404H145.546V13.6589H137.187V18.8545H150.001V22.7981H132.507Z" fill="#F6F6F6"/>
</g>
<defs>
<clipPath id="clip0_392_5958">
<rect width="150" height="22.2222" fill="white" transform="translate(0 0.888916)"/>
</clipPath>
</defs>
</svg>
