<svg width="128" height="33" viewBox="0 0 128 33" fill="none" xmlns="http://www.w3.org/2000/svg">
<g clip-path="url(#clip0_484_1264)">
<mask id="mask0_484_1264" style="mask-type:luminance" maskUnits="userSpaceOnUse" x="0" y="0" width="128" height="33">
<path d="M127.844 0.75H0V32.25H127.844V0.75Z" fill="white"/>
</mask>
<g mask="url(#mask0_484_1264)">
<path d="M43.1632 15.2889C43.4803 15.0269 43.7766 14.8407 44.0523 14.7304C44.1075 14.7028 44.1557 14.6649 44.1971 14.6166C44.2384 14.5684 44.2453 14.5236 44.2177 14.4822C44.204 14.4408 44.1695 14.4201 44.1144 14.4201C44.0868 14.4201 44.0179 14.4339 43.9076 14.4615C43.4803 14.5856 43.1563 14.6477 42.9358 14.6477H36.9807V12.8274H45.9133V15.3096L39.7308 20.9567C39.4688 21.1773 39.1725 21.3635 38.8416 21.5152C38.7865 21.5428 38.7383 21.5807 38.6969 21.629C38.6555 21.6772 38.6487 21.722 38.6762 21.7634C38.7038 21.8048 38.7382 21.8255 38.7796 21.8255C38.8072 21.8255 38.8761 21.8117 38.9864 21.7841C39.3448 21.66 39.6687 21.5979 39.9582 21.5979H45.9133V23.4182H36.9807V20.936L43.1632 15.2889Z" fill="#E7E7E7"/>
<path d="M56.5955 17.9777C56.5955 18.2259 56.5749 18.4672 56.5335 18.7017H48.6348C48.7037 19.5842 49.0276 20.3151 49.6066 20.8943C50.1856 21.4735 50.9369 21.7631 51.8604 21.7631C52.5497 21.7631 53.0907 21.601 53.4836 21.277C53.8765 20.9529 54.1694 20.4737 54.3624 19.8393H56.4095C56.1751 20.915 55.6685 21.8079 54.8897 22.5181C54.1108 23.2282 53.0873 23.5833 51.8191 23.5833C50.7439 23.5833 49.8168 23.342 49.038 22.8594C48.2591 22.3767 47.6698 21.7217 47.2701 20.8943C46.8703 20.0669 46.6704 19.1429 46.6704 18.1225C46.6704 17.0744 46.8841 16.1367 47.3114 15.3093C47.7388 14.4819 48.3418 13.8338 49.1207 13.3649C49.8996 12.8961 50.7852 12.6616 51.7777 12.6616C52.6048 12.6616 53.3871 12.8512 54.1246 13.2305C54.8621 13.6097 55.4583 14.1992 55.9132 14.9991C56.3681 15.7989 56.5955 16.7918 56.5955 17.9777ZM54.6105 17.0469C54.5416 16.247 54.2659 15.6058 53.7834 15.1231C53.3009 14.6405 52.6668 14.3991 51.8811 14.3991C50.9575 14.3991 50.2442 14.6405 49.741 15.1231C49.2378 15.6058 48.9036 16.247 48.7381 17.0469H54.6105Z" fill="#E7E7E7"/>
<path d="M63.0206 12.6616C64.2751 12.6616 65.2434 13.0271 65.9258 13.758C66.6081 14.4888 66.9493 15.6127 66.9493 17.1296V23.4179H64.9643V17.5433C64.9643 16.385 64.7472 15.5714 64.3129 15.1025C63.8787 14.6336 63.2825 14.3992 62.5243 14.3992C62.0005 14.3992 61.4939 14.5681 61.0046 14.906C60.5152 15.2438 60.1154 15.723 59.8053 16.3436C59.4951 16.9642 59.34 17.6744 59.34 18.4742V23.4179H57.355V12.8271H59.34V13.5304C59.34 14.0269 59.2642 14.4957 59.1126 14.937C59.0712 15.0749 59.0471 15.1784 59.0402 15.2473C59.0333 15.3162 59.0643 15.3576 59.1333 15.3714H59.1746C59.2435 15.3714 59.3056 15.3093 59.3607 15.1852C59.5123 14.8129 59.7605 14.4302 60.1051 14.0372C60.4497 13.6442 60.8736 13.3167 61.3767 13.0547C61.8799 12.7926 62.4278 12.6616 63.0206 12.6616Z" fill="#E7E7E7"/>
<path d="M77.9657 23.4181H75.9807V22.5287C75.9807 22.1563 76.0496 21.784 76.1875 21.4117C76.2426 21.3014 76.2702 21.2117 76.2702 21.1428C76.2702 21.06 76.2288 21.0118 76.1461 20.998H76.1048C76.0358 20.998 75.9807 21.06 75.9393 21.1841C75.6912 21.9288 75.2466 22.5149 74.6056 22.9424C73.9646 23.3699 73.2237 23.5836 72.3828 23.5836C71.4868 23.5836 70.6838 23.3492 69.9739 22.8803C69.264 22.4115 68.7092 21.7599 68.3094 20.9256C67.9096 20.0913 67.7097 19.157 67.7097 18.1227C67.7097 17.0885 67.9096 16.1542 68.3094 15.3199C68.7092 14.4856 69.264 13.834 69.9739 13.3652C70.6839 12.8963 71.4868 12.6619 72.3828 12.6619C73.2237 12.6619 73.9681 12.8756 74.616 13.3031C75.2639 13.7306 75.705 14.3029 75.9393 15.02C75.9944 15.1993 76.0772 15.2682 76.1874 15.2268C76.2563 15.213 76.2908 15.1717 76.2908 15.1027C76.2908 15.0476 76.277 14.989 76.2495 14.9269C76.2219 14.8649 76.2012 14.8201 76.1874 14.7925C76.0496 14.4339 75.9807 14.0547 75.9807 13.6548V8.5249H77.9657V23.4181ZM72.7964 21.7633C73.403 21.7633 73.9509 21.5978 74.4402 21.2669C74.9296 20.9359 75.3087 20.4912 75.5775 19.9327C75.8463 19.3742 75.9807 18.7709 75.9807 18.1227C75.9807 17.4746 75.8463 16.8713 75.5775 16.3128C75.3087 15.7543 74.9296 15.3096 74.4402 14.9786C73.9509 14.6476 73.4029 14.4822 72.7964 14.4822C71.8039 14.4822 71.0388 14.8304 70.5012 15.5268C69.9636 16.2231 69.6948 17.0885 69.6948 18.1227C69.6948 19.157 69.9636 20.0223 70.5012 20.7187C71.0388 21.4151 71.8039 21.7633 72.7964 21.7633Z" fill="#E7E7E7"/>
<path d="M82.5484 20.7498C82.6448 21.1359 82.6931 21.5427 82.6931 21.9702C82.6931 22.1357 82.7482 22.2184 82.8585 22.2184C82.9688 22.2184 83.024 22.1357 83.024 21.9702C83.024 21.5427 83.0722 21.1359 83.1687 20.7498L85.1744 12.8274H87.4903L89.496 20.7498C89.5925 21.1359 89.6407 21.5427 89.6407 21.9702C89.6407 22.1357 89.6959 22.2184 89.8062 22.2184C89.9164 22.2184 89.9716 22.1357 89.9716 21.9702C89.9716 21.5427 90.0198 21.1359 90.1163 20.7498L92.2874 12.8274H94.4379L91.2122 23.4182H88.5655L86.6012 15.8888C86.5323 15.544 86.4978 15.1717 86.4978 14.7718C86.4978 14.689 86.4874 14.6235 86.4668 14.5753C86.4461 14.527 86.4013 14.5029 86.3324 14.5029C86.2634 14.5029 86.2186 14.527 86.198 14.5753C86.1773 14.6235 86.1669 14.689 86.1669 14.7718C86.1669 15.1717 86.1325 15.544 86.0636 15.8888L84.0992 23.4182H81.4525L78.2268 12.8274H80.3773L82.5484 20.7498Z" fill="#E7E7E7"/>
<path d="M94.042 20.4599C94.042 18.4328 95.3102 17.3296 97.8466 17.1503L99.0459 17.0883C99.9557 17.0607 100.621 16.9917 101.041 16.8814C101.462 16.7711 101.665 16.5229 101.651 16.1367C101.624 14.9784 100.728 14.3992 98.9632 14.3992C98.0809 14.3992 97.4399 14.5474 97.0402 14.8439C96.6404 15.1404 96.3992 15.5714 96.3165 16.1367H94.3728C94.552 14.9646 95.0551 14.0924 95.8822 13.5201C96.7093 12.9478 97.7639 12.6616 99.0459 12.6616C100.438 12.6616 101.551 13.0029 102.385 13.6855C103.219 14.3681 103.636 15.5989 103.636 17.3778V23.4179H101.651V22.4043C101.651 22.0182 101.727 21.6045 101.879 21.1632C101.892 21.1219 101.906 21.0667 101.92 20.9977C101.934 20.9288 101.937 20.8736 101.93 20.8322C101.923 20.7908 101.899 20.7633 101.858 20.7495L101.796 20.7288C101.727 20.7288 101.682 20.7633 101.661 20.8322C101.641 20.9012 101.624 20.9425 101.61 20.9563C101.307 21.7561 100.81 22.3939 100.121 22.8697C99.4319 23.3455 98.6186 23.5833 97.6812 23.5833C97.0196 23.5833 96.4096 23.4489 95.8513 23.18C95.293 22.9111 94.8518 22.5387 94.5279 22.063C94.204 21.5872 94.042 21.0529 94.042 20.4599ZM101.651 17.7088C101.417 17.9984 101.089 18.1984 100.669 18.3087C100.248 18.419 99.6248 18.5293 98.7977 18.6396C98.6461 18.6534 98.3704 18.6879 97.9707 18.7431C97.309 18.8396 96.8196 19.0154 96.5026 19.2705C96.1855 19.5257 96.027 19.8876 96.027 20.3565C96.027 20.7702 96.182 21.115 96.4922 21.3908C96.8024 21.6666 97.2607 21.8045 97.8673 21.8045C98.5151 21.8045 99.1251 21.6631 99.6972 21.3804C100.269 21.0977 100.738 20.6495 101.103 20.0359C101.468 19.4222 101.651 18.6465 101.651 17.7088Z" fill="#E7E7E7"/>
<path d="M107.205 8.5249V23.4182H105.22V8.5249H107.205Z" fill="#E7E7E7"/>
<path d="M110.775 8.5249V23.4182H108.79V8.5249H110.775Z" fill="#E7E7E7"/>
<path d="M121.462 17.9777C121.462 18.2259 121.441 18.4672 121.4 18.7017H113.501C113.57 19.5842 113.894 20.3151 114.473 20.8943C115.052 21.4735 115.803 21.7631 116.727 21.7631C117.416 21.7631 117.957 21.601 118.35 21.277C118.743 20.9529 119.036 20.4737 119.229 19.8393H121.276C121.041 20.915 120.535 21.8079 119.756 22.5181C118.977 23.2282 117.954 23.5833 116.685 23.5833C115.61 23.5833 114.683 23.342 113.904 22.8594C113.125 22.3767 112.536 21.7217 112.136 20.8943C111.737 20.0669 111.537 19.1429 111.537 18.1225C111.537 17.0744 111.75 16.1367 112.178 15.3093C112.605 14.4819 113.208 13.8338 113.987 13.3649C114.766 12.8961 115.652 12.6616 116.644 12.6616C117.471 12.6616 118.253 12.8512 118.991 13.2305C119.728 13.6097 120.325 14.1992 120.78 14.9991C121.234 15.7989 121.462 16.7918 121.462 17.9777ZM119.477 17.0469C119.408 16.247 119.132 15.6058 118.65 15.1231C118.167 14.6405 117.533 14.3991 116.747 14.3991C115.824 14.3991 115.11 14.6405 114.607 15.1231C114.104 15.6058 113.77 16.247 113.604 17.0469H119.477Z" fill="#E7E7E7"/>
<path d="M124.867 14.5653V20.109C124.867 20.7157 124.96 21.1294 125.146 21.3501C125.332 21.5707 125.708 21.681 126.273 21.681H127.844V23.4186H126.108C124.991 23.4186 124.174 23.1841 123.657 22.7153C123.14 22.2464 122.882 21.4466 122.882 20.3158V14.5653H120.897V12.8278H122.882V9.84912H124.867V12.8278H127.844V14.5653H124.867Z" fill="#E7E7E7"/>
<path fill-rule="evenodd" clip-rule="evenodd" d="M15.829 16.2531L8.51343 13.7868C8.35835 13.7344 8.25034 13.6147 8.2144 13.455L6.82519 7.29041C6.78786 7.12451 6.83936 6.96329 6.96607 6.85012C7.09273 6.73693 7.25878 6.70363 7.41932 6.75958L21.4126 11.6287L28.1441 6.0593C22.0976 3.37677 14.6229 -2.1132 9.67182 2.58641C-3.27627 14.8764 -1.24232 11.1091 4.33427 27.1314L15.829 16.2531Z" fill="#E7E7E7"/>
<path fill-rule="evenodd" clip-rule="evenodd" d="M15.8258 16.2504L23.314 18.865C23.4671 18.9185 23.5732 19.0373 23.6086 19.1957L25.1011 25.8552C25.2138 26.3585 24.7521 26.5587 24.3411 26.3863L11.0243 20.7994L4.33374 27.1312C21.1975 34.8092 18.3604 34.4 30.7986 22.1291C34.52 18.363 29.668 10.5628 28.1436 6.05908L15.8258 16.2504Z" fill="#E7E7E7"/>
<path fill-rule="evenodd" clip-rule="evenodd" d="M15.829 16.2531L8.51343 13.7868C8.35835 13.7344 8.25034 13.6147 8.2144 13.455L6.82519 7.29041C6.78786 7.12451 6.83936 6.96329 6.96607 6.85012C7.09273 6.73693 7.25878 6.70363 7.41932 6.75958L21.4126 11.6287L28.1441 6.0593C22.0976 3.37677 14.6229 -2.1132 9.67182 2.58641C-3.27627 14.8764 -1.24232 11.1091 4.33427 27.1314L15.829 16.2531Z" fill="#E7E7E7"/>
</g>
</g>
<defs>
<clipPath id="clip0_484_1264">
<rect width="128" height="32" fill="white" transform="translate(0 0.5)"/>
</clipPath>
</defs>
</svg>
