<svg width="189" height="85" viewBox="0 0 189 85" fill="none" xmlns="http://www.w3.org/2000/svg">
<path d="M89.8278 54.1063C89.9692 52.9715 90.1107 51.9785 90.3935 50.8437C91.3835 45.7372 92.232 40.4887 93.222 35.3822C93.7877 32.687 94.2119 29.9919 94.7776 27.2968C94.919 26.8712 94.919 26.5875 95.4847 26.5875C98.1718 26.5875 100.717 26.5875 103.404 26.5875C103.829 26.5875 104.112 26.5875 104.112 27.1549C104.394 33.5381 104.819 39.9213 105.102 46.3046C105.384 51.4111 105.667 56.3758 105.95 61.4824C106.092 64.7449 106.374 68.0075 106.516 71.1282C106.516 71.4119 106.516 71.6955 106.516 71.9792C103.829 71.9792 101.283 71.9792 98.5961 71.9792C98.3132 64.1775 97.8889 56.3758 97.6061 48.4323C97.4647 48.716 97.3232 48.8578 97.3232 48.8578C96.1919 53.9644 95.2019 59.2128 94.0705 64.3194C93.6462 66.3053 93.222 68.433 92.7977 70.4189C92.6563 70.9863 92.5149 71.1282 91.9492 71.1282C90.1107 71.1282 88.2721 71.1282 86.2922 71.1282C84.7366 63.4683 83.1809 55.8084 81.6252 48.1486H81.4838C81.201 56.0921 80.7767 63.8938 80.4939 71.8374C77.9482 71.8374 75.4026 71.8374 72.7156 71.8374C72.7156 71.1282 72.7156 70.4189 72.857 69.7097C73.1398 65.1705 73.4227 60.7732 73.7055 56.234C74.1298 49.8508 74.5541 43.4676 74.9783 37.0844C75.2612 33.68 75.4026 30.2756 75.544 26.8712C75.544 26.5875 75.544 26.162 75.9683 26.162C78.7968 26.162 81.7667 26.162 84.5951 26.162C86.1508 35.8077 87.9893 44.8861 89.8278 54.1063Z" fill="#D1D1D1"/>
<path d="M110.476 26.5875C113.446 26.5875 116.274 26.5875 119.244 26.5875C119.244 26.8712 119.244 27.1549 119.244 27.4386C119.244 37.0844 119.244 46.7301 119.244 56.5177C119.244 58.3617 119.385 60.2058 120.092 61.908C120.517 62.7591 120.941 63.6101 121.931 63.752C123.062 64.0357 123.911 63.4683 124.477 62.3335C125.184 60.7732 125.325 58.9291 125.325 57.2269C125.325 47.2975 125.325 37.3681 125.325 27.4386C125.325 27.1549 125.325 26.8712 125.325 26.5875C128.295 26.5875 131.123 26.5875 134.093 26.5875C134.093 26.8712 134.093 27.0131 134.093 27.2968C134.093 36.8007 134.093 46.1627 134.093 55.6666C134.093 59.4965 133.528 63.3265 131.831 66.7308C129.568 71.27 125.467 72.9722 120.8 72.5466C115.567 71.9792 112.738 68.7167 111.466 63.8938C110.476 60.6313 110.334 57.3688 110.334 54.1063C110.334 45.1698 110.334 36.3751 110.334 27.4386C110.476 27.1549 110.476 26.8712 110.476 26.5875Z" fill="#D1D1D1"/>
<path d="M147.811 55.5247C147.811 61.0569 147.811 66.589 147.811 71.9792C144.842 71.9792 142.013 71.9792 139.043 71.9792C139.043 71.6955 139.043 71.4119 139.043 71.1282C139.043 56.8014 139.043 42.3328 139.043 28.006C139.043 27.4386 139.185 27.1549 139.892 27.0131C143.852 26.162 147.953 25.8783 152.054 26.5875C157.145 27.4386 160.54 30.5593 161.671 35.6659C162.802 40.205 162.378 44.7442 160.257 48.9997C157.994 53.2552 154.317 55.2411 149.508 55.5247C148.801 55.6666 148.377 55.5247 147.811 55.5247ZM147.811 47.2975C149.791 47.723 151.63 46.7301 152.478 44.8861C153.468 42.4746 153.468 39.7795 152.62 37.3681C151.913 35.3822 150.64 34.6729 148.519 34.6729C147.953 34.6729 147.67 34.8148 147.67 35.524C147.67 39.2121 147.67 42.9002 147.67 46.7301C147.811 46.8719 147.811 47.1556 147.811 47.2975Z" fill="#D1D1D1"/>
<path d="M20.8132 35.2403C20.8132 38.6447 20.8132 42.0491 20.8132 45.3116C23.6416 45.3116 26.6115 45.3116 29.44 45.3116C29.44 48.1486 29.44 50.8437 29.44 53.6807C26.6115 53.6807 23.6416 53.6807 20.8132 53.6807C20.8132 59.7802 20.8132 65.8797 20.8132 71.9792C17.8433 71.9792 15.0148 71.9792 12.0449 71.9792C12.0449 56.8014 12.0449 41.6235 12.0449 26.4457C18.1261 26.4457 24.0659 26.4457 30.1471 26.4457C30.1471 29.2827 30.1471 32.2615 30.1471 35.0985C26.8944 35.2403 23.9245 35.2403 20.8132 35.2403Z" fill="#D1D1D1"/>
<path d="M48.5322 26.5875C51.5021 26.5875 54.3305 26.5875 57.3004 26.5875C57.3004 38.9284 57.3004 51.1274 57.3004 63.6102C60.6946 63.6102 63.9473 63.6102 67.3415 63.6102C67.3415 66.4471 67.3415 69.2841 67.3415 72.1211C61.1189 72.1211 54.8962 72.1211 48.6736 72.1211C48.5322 56.9432 48.5322 41.7654 48.5322 26.5875Z" fill="#D1D1D1"/>
<path d="M176.662 41.7654C174.965 41.0561 173.409 40.3469 171.853 39.6376C170.722 39.0702 169.732 38.6447 168.601 38.0773C168.035 37.9355 168.035 37.6518 168.035 37.0844C168.035 31.8359 168.035 26.7294 168.035 21.481C168.035 21.3391 168.035 21.1973 168.035 20.9136C167.752 20.9136 167.469 20.9136 167.186 20.9136C161.954 20.9136 156.721 20.9136 151.63 20.9136C151.064 20.9136 150.781 20.9136 150.64 20.3462C149.509 17.5092 148.236 14.814 146.963 11.9771C146.963 11.9771 146.963 11.8352 146.963 11.6934C157.004 11.6934 166.904 11.6934 176.945 11.6934C176.662 21.6228 176.662 31.5522 176.662 41.7654Z" fill="#D1D1D1"/>
<path d="M43.5823 72.1211C40.6125 72.1211 37.784 72.1211 34.8141 72.1211C34.8141 56.9432 34.8141 41.7654 34.8141 26.5875C37.784 26.5875 40.6125 26.5875 43.5823 26.5875C43.5823 41.7654 43.5823 56.8014 43.5823 72.1211Z" fill="#D1D1D1"/>
</svg>
