<svg width="96" height="85" viewBox="0 0 96 85" fill="none" xmlns="http://www.w3.org/2000/svg">
<path d="M41.5739 68.5762V9.79054H85.753V68.5762H41.5739Z" fill="#D1D1D1"/>
<path d="M32.8484 41.2106V46.8857H10.4593C10.4593 45.0389 10.4503 43.2265 10.4712 41.4126C10.4712 41.2106 10.6341 41.0025 10.7446 40.8139C13.0157 36.8659 15.2897 32.9193 17.6309 28.8545H11.2422V9.77259C11.5096 9.75912 11.7741 9.73367 12.04 9.73367C17.9148 9.73367 23.7896 9.70973 29.6704 9.75463C30.6129 9.77507 31.546 9.94634 32.4345 10.262C34.199 10.8711 35.2942 12.1507 35.5034 14.0409C35.7185 15.9716 35.097 17.5759 33.4281 18.6805C33.3056 18.7613 33.1905 18.8511 32.9918 18.9977L33.8883 19.3569C35.8799 20.1531 36.9631 21.741 36.9601 23.8573C36.9601 25.9421 35.9143 27.5389 33.8942 28.2588C32.9553 28.5784 31.9748 28.759 30.9837 28.7946C29.2207 28.8784 27.4502 28.7946 25.6827 28.8365C25.4227 28.8365 25.0477 29.0131 24.9251 29.2241C22.6511 33.1153 20.407 37.023 18.1599 40.9277C18.1206 41.0178 18.0886 41.1109 18.0642 41.2061L32.8484 41.2106ZM18.378 24.6415C18.6066 24.6609 18.7993 24.6924 18.9921 24.6924C22.1795 24.6924 25.3639 24.6924 28.5454 24.6924C29.6316 24.6924 30.3218 24.0608 30.3248 23.1134C30.3248 22.1242 29.636 21.5165 28.4946 21.5165H18.378V24.6415ZM18.378 16.9234C18.48 16.9654 18.587 16.994 18.6962 17.0087C21.6082 17.0087 24.5232 17.0252 27.4337 16.9968C27.7764 16.9722 28.1019 16.8373 28.3616 16.6121C28.6191 16.4086 28.8012 16.1245 28.8787 15.8052C28.9561 15.4859 28.9245 15.1498 28.7889 14.8506C28.6821 14.5407 28.4775 14.274 28.2061 14.0907C27.9347 13.9074 27.6112 13.8174 27.2843 13.8344C25.2185 13.8344 23.1521 13.8344 21.0853 13.8344H18.378V16.9234Z" fill="#D1D1D1"/>
<path d="M17.5996 49.6006V56.2201C18.8203 56.2201 19.9812 56.2396 21.1421 56.2022C21.3483 56.2022 21.5709 55.9777 21.7472 55.8146C23.8643 53.8525 25.9695 51.877 28.0941 49.9209C28.3004 49.7175 28.5686 49.5889 28.8561 49.5557C31.668 49.5318 34.4799 49.5422 37.2918 49.5467C37.4112 49.5658 37.5287 49.5954 37.6429 49.635L27.867 59.0936L37.7027 68.5987C37.3635 68.6181 37.1783 68.6376 36.993 68.6376C34.3544 68.6376 31.7158 68.654 29.0743 68.6196C28.6943 68.6018 28.3314 68.4569 28.0433 68.2081C25.9083 66.2624 23.8135 64.2779 21.68 62.3323C21.4051 62.1033 21.0642 61.9685 20.7073 61.9477C19.6958 61.8983 18.6813 61.9297 17.5891 61.9297V68.5957H10.4936V49.6006H17.5996Z" fill="#D1D1D1"/>
<path d="M18.3227 80.8754H17.1977C17.1767 80.5761 17.1543 80.2962 17.1244 79.8757C16.3221 80.6944 15.4032 81.082 14.326 81.055C13.2677 81.0591 12.2495 80.65 11.4872 79.9146C10.3427 78.8086 10.0319 76.8645 10.7402 75.4143C11.4872 73.8817 13.3339 73.0197 15.2225 73.307C16.866 73.557 17.9298 74.4639 18.1868 75.9231C17.362 75.8303 16.5627 76.2299 15.8037 75.4307C15.0955 74.6824 13.5311 74.9578 12.8424 75.7794C12.5112 76.2038 12.346 76.7346 12.3779 77.2722C12.4098 77.8099 12.6366 78.3174 13.0157 78.6994C13.7627 79.4282 15.2105 79.4866 15.9575 78.8011C16.1279 78.644 16.2384 78.4225 16.4596 78.1172H14.5038V76.9199H18.3227V80.8754Z" fill="#D1D1D1"/>
<path d="M71.1736 78.0872H69.1849V76.9154H72.9829V80.85H71.8758C71.8564 80.5776 71.8369 80.2903 71.807 79.8757C71.0047 80.6928 70.0858 81.0865 69.0026 81.0565C67.9436 81.0568 66.9259 80.6453 66.1638 79.9086C65.0223 78.7996 64.7146 76.854 65.4287 75.4068C66.1758 73.8772 68.0285 73.0122 69.9215 73.3115C71.565 73.5674 72.6363 74.4834 72.8738 75.9306C72.0491 75.8438 71.2453 76.2224 70.4833 75.4292C69.7945 74.7064 68.2705 74.9563 67.5743 75.7286C67.226 76.1404 67.0407 76.6658 67.0533 77.2053C67.066 77.7449 67.2758 78.261 67.643 78.6559C68.3661 79.4043 69.8035 79.509 70.5804 78.849C70.7821 78.6859 70.9061 78.4419 71.1736 78.0872Z" fill="#D1D1D1"/>
<path d="M40.6222 78.8834V80.8455H38.6559V73.4821C40.2994 73.4821 41.9071 73.4208 43.5118 73.5031C44.5726 73.557 45.4048 74.1017 45.7096 75.2152C46.0323 76.3931 45.8426 77.4347 44.852 78.2444C44.7881 78.3048 44.7282 78.3693 44.6727 78.4374L46.0413 80.9039C45.4123 80.9039 44.8983 80.9248 44.3873 80.8919C44.2215 80.8814 44.0556 80.7422 43.9092 80.6315C43.836 80.5776 43.8076 80.4639 43.7598 80.3771C42.7647 78.6096 42.7647 78.6096 40.6222 78.8834ZM40.6685 75.106V77.2656C41.4051 77.2656 42.0954 77.3 42.7812 77.2551C43.3937 77.2147 43.8016 76.8839 43.827 76.2165C43.8494 75.5999 43.4655 75.1688 42.7647 75.1164C42.064 75.0641 41.3872 75.1075 40.6685 75.1075V75.106Z" fill="#D1D1D1"/>
<path d="M85.6828 73.4612V75.0416H81.3095V76.4005H85.5214V77.8014H81.3155V79.2501H85.6693V80.8455H79.2835V73.4612H85.6828Z" fill="#D1D1D1"/>
<path d="M32.699 80.9039C32.055 80.9039 31.5037 80.9458 30.9748 80.8814C30.8582 80.8492 30.7509 80.79 30.6614 80.7087C30.5718 80.6273 30.5026 80.526 30.4593 80.413C30.2994 79.8592 29.9961 79.6647 29.4314 79.7245C28.8844 79.7682 28.3348 79.7682 27.7878 79.7245C27.0811 79.6826 26.4432 79.6781 26.3117 80.609C26.2952 80.7228 26.0383 80.8769 25.8859 80.8859C25.342 80.9203 24.7952 80.8994 24.1512 80.8994C24.4246 80.169 24.6726 79.5015 24.9266 78.837C25.5467 77.2102 26.1847 75.5909 26.7823 73.9566C26.9317 73.539 27.1379 73.3699 27.5891 73.4013C28.3287 73.4522 29.2326 73.1918 29.766 73.5375C30.2606 73.8608 30.3637 74.7977 30.6192 75.4697C31.3079 77.2536 31.9863 79.0376 32.699 80.9039ZM29.6346 78.174C29.3073 77.2761 29.0205 76.4589 28.7142 75.6552C28.6694 75.537 28.5379 75.3829 28.4363 75.3754C28.3347 75.3679 28.1868 75.5161 28.1375 75.6283C27.8237 76.4544 27.5324 77.288 27.2141 78.1725L29.6346 78.174Z" fill="#D1D1D1"/>
<path d="M53.6209 80.8739H51.5022C51.9191 79.7799 52.3135 78.7383 52.7109 77.6996C53.1995 76.4215 53.6731 75.1389 54.205 73.8773C54.2902 73.6722 54.6085 73.566 54.8221 73.4163C54.8385 73.4043 54.8699 73.4163 54.8953 73.4163C55.6424 73.4268 56.5597 73.1753 57.0797 73.524C57.5996 73.8728 57.7117 74.8126 57.9762 75.5026C58.659 77.2611 59.3209 79.0241 60.0276 80.8545H57.9224C57.8835 79.6572 57.0379 79.6662 56.1489 79.7335C55.8507 79.7621 55.5506 79.7621 55.2524 79.7335C54.3709 79.6288 53.6642 79.765 53.6209 80.8739ZM56.9766 78.1651C56.6494 77.2671 56.3595 76.432 56.0264 75.6208C55.9935 75.54 55.5602 75.5101 55.5438 75.5505C55.2001 76.4035 54.8879 77.2701 54.5577 78.1711L56.9766 78.1651Z" fill="#D1D1D1"/>
</svg>
