<svg width="155" height="85" viewBox="0 0 155 85" fill="none" xmlns="http://www.w3.org/2000/svg">
<path d="M29.6192 4.89404C32.0122 5.85619 32.9695 7.58805 32.6823 10.2821C32.4909 12.3026 31.8208 14.2269 30.385 15.7663C30.0021 16.2474 29.6192 16.6322 29.0448 17.0171C27.7047 17.883 26.3646 17.4982 25.5031 16.2474C24.833 15.2852 24.5458 14.1306 24.4501 12.8799C24.3544 11.2442 24.5458 9.60856 25.2159 8.16534C25.886 6.62591 26.9389 5.37512 28.6619 4.99026C29.0448 4.89404 29.332 4.89404 29.6192 4.89404Z" fill="#EFEFEF"/>
<path d="M54.603 57.1386C51.827 60.6023 48.2852 60.2174 46.5622 56.1764C46.4665 56.3689 46.3708 56.5613 46.275 56.7537C45.3178 58.3894 44.1691 59.6402 42.2547 60.1212C40.053 60.6023 38.2343 59.2553 38.2343 56.9462C38.2343 55.6954 38.4257 54.4446 38.5214 53.1938C38.6172 52.1354 38.1385 51.7506 37.0856 51.943C36.1284 52.1354 35.4583 52.7127 35.0754 53.5786C34.4053 54.8294 34.1182 56.1764 34.1182 57.5234C34.1182 58.1969 34.1182 58.8704 34.1182 59.5439C34.1182 60.5061 33.6395 60.9872 32.8738 61.0834C31.9165 61.1796 31.3422 60.7947 31.1507 59.8326C31.055 59.5439 31.055 59.1591 31.055 58.8704C31.055 58.3894 31.055 57.9083 31.055 57.331C30.7678 57.5234 30.6721 57.6197 30.4807 57.7159C27.8961 59.6402 25.1202 60.9872 21.8656 61.5645C14.9735 62.9115 8.94291 59.3515 6.64555 52.6165C5.11397 48.3831 5.11397 44.0534 6.07121 39.7237C7.41134 33.6622 10.0916 28.3704 14.4949 24.137C16.7922 21.924 19.281 20.2884 22.4399 19.6149C24.4501 19.1338 26.4603 19.23 28.3748 19.9997C31.2465 21.1543 32.6823 23.5597 33.1609 26.5423C33.7353 30.1023 33.0652 33.566 31.9165 36.9335C30.7678 40.2048 29.1405 43.0913 26.556 45.4004C25.0244 46.7474 23.3971 47.8058 21.387 47.9982C18.1324 48.383 15.4521 46.555 14.8778 43.2837C14.2077 39.5313 15.1649 36.1638 17.6537 33.2774C17.9409 32.9887 18.2281 32.7963 18.5152 32.6039C18.9939 32.3152 19.6639 32.3152 20.0468 32.7001C20.5254 33.0849 20.5254 33.566 20.334 34.1433C20.1425 34.7206 19.7597 35.2979 19.4725 35.8751C18.5152 37.4146 17.9409 39.0502 17.8452 40.8783C17.8452 41.648 17.9409 42.514 18.1324 43.2837C18.611 44.7269 19.8554 45.3042 21.2912 45.1118C22.4399 44.9193 23.3971 44.2458 24.2587 43.4761C25.7902 42.0329 26.9389 40.2048 27.8004 38.1843C29.1405 35.2017 30.0021 32.0266 29.9063 28.7553C29.8106 27.2158 29.6192 25.6764 28.7577 24.3294C27.9919 23.0786 26.8432 22.5013 25.4073 22.3089C22.9185 22.1165 20.8126 23.0786 18.8981 24.5218C15.835 26.831 13.6334 29.9098 12.0061 33.3736C10.283 36.8373 9.13436 40.4935 8.84719 44.4383C8.65574 47.8058 9.03863 50.9808 10.6659 53.9635C12.6761 57.6197 15.835 59.1591 19.9511 58.8704C23.6843 58.5818 26.7475 56.9462 29.7149 54.637C30.6721 53.8673 31.2465 53.0014 31.3422 51.6544C31.4379 48.9603 31.9165 46.1701 32.6823 43.5723C33.1609 42.0329 33.7353 40.5897 34.7882 39.3389C35.9369 37.8957 37.4685 37.4146 39.2872 37.607C41.2974 37.8957 42.4461 39.6275 42.2547 41.8405C42.0632 43.861 41.3931 45.689 40.4359 47.4209C40.053 47.9982 39.6701 48.6717 39.2872 49.3452C39.5744 49.3452 39.7658 49.3452 39.9573 49.3452C41.0102 49.3452 41.776 50.1149 41.6803 51.1733C41.5846 52.3279 41.3931 53.4824 41.2017 54.637C41.106 55.1181 41.0102 55.6954 41.106 56.1764C41.106 57.1386 41.776 57.5234 42.6375 57.1386C43.3076 56.8499 43.7862 56.2727 44.0734 55.5991C44.552 54.4446 45.0306 53.3862 45.4135 52.2316C45.8921 50.7884 46.275 49.4414 46.7537 47.9982C46.8494 47.6133 47.0408 47.1323 47.328 46.8436C47.8066 46.1701 48.4767 45.8815 49.2425 46.0739C50.0082 46.2663 50.2954 46.7474 50.1997 47.5171C50.104 48.0944 49.9125 48.5755 49.7211 49.0566C49.1467 50.596 48.7638 52.0392 48.9553 53.6749C49.051 54.3484 49.2425 55.1181 49.6253 55.6954C50.104 56.6575 51.0612 56.8499 52.0184 56.0802C52.8799 55.4067 53.2628 54.637 53.2628 53.4824C53.0714 49.8263 54.1243 46.6512 57.2832 44.4383C58.9105 43.1875 61.0164 43.2837 62.548 44.5345C63.9839 45.689 64.1753 47.2285 63.7924 48.9603C63.601 49.8263 63.3138 50.596 62.7394 51.2695C62.3566 51.6543 61.9737 51.943 61.3993 51.943C60.3464 51.943 59.772 51.1733 60.0592 50.1149C60.2507 49.7301 60.4421 49.249 60.6335 48.8641C61.0164 48.0944 61.0164 47.4209 60.5378 47.1323C60.0592 46.7474 59.3891 46.8436 58.7191 47.4209C57.2832 48.6717 56.7089 50.3073 56.6132 52.1354C56.6132 52.6165 56.6132 53.1938 56.7089 53.6749C56.9961 55.5992 58.4319 56.6575 60.3464 56.3689C63.8881 55.984 66.0898 53.8673 67.1427 50.4998C67.6214 48.9603 67.7171 47.3247 67.9085 45.689C68.1957 43.7648 68.2914 41.7442 68.4829 39.82C68.4829 39.6275 68.5786 39.3389 68.5786 39.1464C68.77 38.2805 69.5358 37.7994 70.3016 37.8957C71.1631 37.9919 71.6417 38.6654 71.546 39.6275C71.3546 41.3594 71.1631 43.1875 70.9717 44.9193C70.9717 45.1118 70.9717 45.208 70.8759 45.4966C71.0674 45.3042 71.2588 45.208 71.3546 45.1118C72.2161 44.4382 73.0776 43.9572 74.2263 43.861C76.4279 43.7647 77.9595 45.0155 78.2467 47.2285C78.5338 49.5376 77.6723 51.4619 76.1407 53.1938C75.1835 54.2521 74.0348 55.1181 72.6947 55.6954C73.269 57.6197 75.0878 58.678 77.0022 57.6197C77.5766 57.2348 78.1509 56.6575 78.6295 56.1764C79.0124 55.7916 79.2996 55.3105 79.5868 54.9256C79.9697 54.5408 80.4483 54.3484 80.9269 54.637C81.4055 54.9256 81.4055 55.3105 81.4055 55.7916C81.2141 57.9083 78.9167 60.2175 76.7151 60.6023C74.4177 60.9872 72.5033 60.2174 70.9717 58.4856C70.4931 57.9083 70.0144 57.2348 69.5358 56.5613C69.5358 56.7537 69.4401 56.9462 69.4401 57.1386C69.1529 58.2932 68.9615 59.4477 68.5786 60.5061C68.3871 61.0834 67.8128 61.4682 67.1427 61.4682C66.2812 61.4682 65.8026 60.9872 65.8026 60.1212C65.8026 59.2553 65.994 58.3894 66.0898 57.5234C66.0898 57.2348 66.1855 56.9462 66.1855 56.4651C65.8983 56.7537 65.7069 56.8499 65.5154 57.0424C63.7924 58.4856 61.8779 59.3515 59.5806 59.3515C57.6661 59.3515 56.1345 58.678 54.7944 57.331C54.7944 57.4272 54.6987 57.331 54.603 57.1386ZM34.3096 50.6922C34.4053 50.6922 34.4053 50.6922 34.5011 50.7884C35.0754 50.0187 35.7455 49.249 36.3198 48.4793C37.4685 46.9398 38.6172 45.4004 39.0958 43.5723C39.2872 42.8026 39.3829 42.0329 39.3829 41.2632C39.3829 40.3972 38.6172 39.9162 37.7556 40.301C37.4685 40.3972 37.1813 40.5897 36.9899 40.8783C36.607 41.3594 36.2241 41.9367 36.0326 42.514C35.554 44.2458 35.0754 46.0739 34.6925 47.8058C34.5011 48.7679 34.4053 49.7301 34.3096 50.6922ZM70.3973 53.29C72.2161 53.0014 74.7049 50.7884 75.1835 49.0566C75.2792 48.8641 75.2792 48.6717 75.2792 48.383C75.375 47.1323 74.322 46.3625 73.1733 46.8436C72.6947 47.036 72.1204 47.5171 71.8332 47.9982C70.7802 49.5376 70.5888 51.3657 70.3973 53.29Z" fill="#EFEFEF"/>
<path d="M87.9147 56.5613C87.7233 56.5613 87.5318 56.6575 87.3404 56.6575C86.766 56.7537 86.2874 56.5613 86.0002 56.0802C85.7131 55.5991 85.6173 55.1181 86.0002 54.7332C86.3831 54.2521 86.9575 53.7711 87.4361 53.3862C87.7233 53.0976 87.9147 52.9051 87.9147 52.5203C88.0104 49.6338 88.489 46.8436 89.3506 44.1496C90.1163 41.8405 91.265 39.7237 93.0838 37.9919C94.1367 37.0297 95.3811 36.3562 96.817 36.3562C98.7315 36.3562 100.072 37.607 100.263 39.5313C100.454 41.5518 99.8801 43.3799 99.0186 45.1118C97.7742 47.7095 96.2426 50.0187 94.1367 51.943C93.9453 52.1354 93.6581 52.3278 93.4667 52.5203C95.1897 54.3484 97.9657 54.1559 99.6887 52.3278C100.646 51.3657 101.22 50.1149 101.603 48.8641C101.89 47.902 102.273 46.9398 102.56 45.9777C102.752 45.4966 102.943 45.1118 103.23 44.7269C103.709 44.0534 104.475 43.9572 105.241 44.1496C105.719 44.2458 106.102 44.6307 106.006 45.208C105.911 45.7853 105.815 46.4588 105.719 47.036C105.241 48.6717 104.762 50.4036 104.953 52.1354C104.953 52.4241 105.049 52.7127 105.049 53.0976C105.432 54.8294 106.772 55.5029 108.4 54.8294C108.782 54.637 109.165 54.4446 109.644 54.2521C109.931 54.0597 110.027 53.8673 109.835 53.5786C108.4 48.8641 109.07 44.5345 111.846 40.4935C112.707 39.2427 113.856 38.1843 115.387 37.7032C117.589 37.0297 119.408 38.4729 119.599 40.9745C119.791 43.3799 119.121 45.689 118.259 47.902C117.206 50.4036 115.77 52.5203 113.76 54.2521C113.664 54.3484 113.664 54.3484 113.569 54.4446C114.717 56.3689 117.493 56.7537 118.929 54.8294C119.216 54.4446 119.312 54.0597 119.599 53.5786C119.791 53.29 119.886 53.0976 120.078 52.9051C120.461 52.5203 120.939 52.5203 121.322 52.7127C121.801 52.9051 121.897 53.29 121.897 53.7711C121.801 55.0219 121.131 56.0802 120.365 56.9462C117.972 59.5439 114.047 59.5439 111.558 56.8499C111.271 56.4651 110.984 56.4651 110.601 56.6575C109.74 57.0424 108.878 57.5234 108.017 57.7159C105.432 58.3894 103.326 57.0424 102.56 54.5408C102.56 54.3484 102.465 54.1559 102.465 54.0597C101.603 54.7332 100.742 55.4067 99.8801 55.8878C98.9229 56.3689 97.8699 56.6575 96.817 57.0424C96.817 57.1386 96.9127 57.331 97.0084 57.5234C97.6785 59.3515 98.0614 61.1796 97.6785 63.1039C97.2956 64.5471 96.6255 65.7979 95.094 66.3752C93.5624 66.9525 91.8394 66.3752 90.6907 64.8358C89.4463 63.3925 88.8719 61.6607 88.3933 59.8326C88.2019 58.678 88.1062 57.6197 87.9147 56.5613ZM91.0736 50.8846C91.1693 50.8846 91.1693 50.8846 91.265 50.9808C91.4565 50.8846 91.5522 50.6922 91.6479 50.596C92.7966 49.1528 94.041 47.7095 95.1897 46.2663C96.1469 44.9193 97.0084 43.3799 97.3913 41.648C97.5828 41.0707 97.6785 40.3972 97.5828 39.7237C97.5828 39.0502 97.1042 38.8578 96.5298 39.1464C96.3384 39.2427 96.1469 39.3389 95.9555 39.5313C95.2854 40.2048 94.6153 40.8783 94.041 41.648C92.7966 43.4761 92.0308 45.4966 91.5522 47.7095C91.4565 48.6717 91.265 49.8263 91.0736 50.8846ZM112.516 51.8468C112.611 51.8468 112.611 51.8468 112.707 51.8468C112.803 51.7506 112.803 51.6544 112.899 51.5581C114.909 49.1528 116.249 46.3625 116.919 43.2837C117.11 42.514 117.11 41.648 117.11 40.7821C117.015 39.8199 116.44 39.6275 115.77 40.2048C115.387 40.4935 115.1 40.8783 114.813 41.2632C113.09 43.9572 112.228 46.9398 112.324 50.1149C112.324 50.7884 112.42 51.2695 112.516 51.8468ZM90.9778 54.7332C90.8821 54.7332 90.8821 54.7332 90.7864 54.8294C90.7864 55.4067 90.7864 55.984 90.7864 56.4651C90.9779 58.4856 91.265 60.4099 92.318 62.1417C92.6051 62.5266 92.988 63.0077 93.3709 63.2963C94.041 63.7774 94.8068 63.4887 94.9982 62.8152C95.1897 62.4304 95.1897 61.9493 95.1897 61.4682C95.1897 59.8326 94.6153 58.2932 93.9453 56.8499C93.9453 56.7537 93.8495 56.5613 93.7538 56.5613C92.7966 56.1764 91.8394 55.5991 90.9778 54.7332Z" fill="#EFEFEF"/>
<path d="M143.051 55.4067C144.487 56.6575 145.827 57.7159 147.646 58.0045C148.125 58.1007 148.699 58.2932 149.082 58.678C149.656 59.1591 149.561 60.025 148.891 60.4099C148.603 60.6023 148.125 60.7947 147.742 60.7947C146.21 60.9872 144.774 60.5061 143.53 59.6402C142.286 58.7742 141.137 57.7159 139.988 56.6575C139.701 56.4651 139.51 56.3689 139.222 56.3689C135.968 57.0424 132.713 57.331 129.363 57.331C128.884 57.331 128.597 57.5234 128.31 57.8121C126.395 59.5439 124.577 61.2758 122.567 62.9115C122.088 63.2963 121.322 63.585 120.652 63.7774C120.078 63.9698 119.599 63.6812 119.312 63.1039C119.025 62.6228 119.025 62.0455 119.312 61.5645C119.695 61.0834 120.078 60.6985 120.556 60.4099C121.897 59.3515 123.237 58.2932 124.672 57.2348C124.29 57.0424 124.098 56.9462 123.907 56.8499C123.237 56.4651 122.854 55.8878 123.045 55.3105C123.141 54.7332 123.715 54.2521 124.481 54.2521C125.247 54.2521 126.013 54.3484 126.778 54.4446C127.066 54.4446 127.353 54.3484 127.544 54.1559C129.554 51.8468 131.469 49.4414 133.479 47.1323C133.766 46.7474 133.862 46.4588 133.67 45.9777C133 44.1496 132.426 42.2253 132.522 40.2048C132.522 39.2427 132.809 38.2805 133.383 37.4146C134.819 35.0092 138.265 35.2016 139.605 37.607C140.371 39.0502 140.371 40.5897 139.701 42.1291C139.127 43.5723 138.361 45.0155 137.595 46.4588C137.404 46.8436 137.308 47.036 137.499 47.4209C138.552 49.1528 139.605 50.8846 140.658 52.6165C140.85 53.0014 141.041 53.0976 141.424 52.9051C142.668 52.3279 144.009 51.7506 145.253 51.1733C145.636 50.9808 146.115 50.7884 146.497 50.7884C147.55 50.7884 148.125 51.8468 147.55 52.7127C147.359 53.0976 146.976 53.3862 146.593 53.5786C145.54 54.1559 144.487 54.637 143.434 55.1181C143.434 55.2143 143.339 55.3105 143.051 55.4067ZM135.394 49.8263C134.149 51.3657 132.809 52.9051 131.565 54.4446C131.565 54.5408 131.565 54.5408 131.66 54.637C133.67 54.4446 135.776 54.1559 137.882 53.9635C137.021 52.5203 136.255 51.1733 135.394 49.8263ZM136.064 43.2837C136.734 42.2253 137.308 41.0707 137.404 39.82C137.404 39.6275 137.404 39.4351 137.308 39.3389C137.117 39.0502 136.925 38.7616 136.638 38.6654C136.351 38.6654 135.968 38.8578 135.681 39.0502C135.489 39.1464 135.489 39.4351 135.394 39.7237C135.298 40.8783 135.585 42.1291 136.064 43.2837Z" fill="#EFEFEF"/>
<path d="M35.9369 21.6354C35.554 21.6354 35.1711 21.6354 34.884 21.5392C32.6823 21.1543 31.7251 19.6149 32.2037 17.4019C32.5866 15.5739 33.6395 14.0344 34.884 12.6874C36.607 10.8593 38.5214 9.51234 41.106 9.12749C43.5948 8.74263 45.7964 10.0896 46.275 12.3988C46.4665 13.6496 46.1793 14.9004 45.5092 15.9587C43.2119 19.4225 39.9573 21.1543 35.9369 21.6354Z" fill="#EFEFEF"/>
<path d="M23.11 14.5155C23.0142 15.3814 22.9185 16.2474 22.4399 17.0171C21.9613 17.6906 21.2912 17.9792 20.5254 17.7868C19.9511 17.5944 19.4725 17.4019 18.9939 17.1133C17.2708 15.8625 16.2179 14.1306 15.9307 12.0139C15.835 11.5329 15.835 10.9556 15.9307 10.4745C16.3136 8.35777 18.3238 7.49184 20.1425 8.5502C21.5784 9.41613 22.3442 10.7631 22.7271 12.3988C22.9185 13.0723 23.0142 13.7458 23.11 14.5155Z" fill="#EFEFEF"/>
<path d="M15.3564 20.4808C13.7291 20.4808 11.8146 19.1338 11.2403 17.5944C10.9531 16.8247 10.9531 16.0549 11.5274 15.3814C12.1018 14.7079 12.8676 14.5155 13.6334 14.7079C15.1649 15.0928 16.7922 16.7284 17.0794 18.3641C17.2708 19.7111 16.6965 20.4808 15.3564 20.4808Z" fill="#EFEFEF"/>
<path d="M34.1182 34.8168C34.4053 32.4114 34.5968 30.1023 34.884 27.6969C35.0754 27.6969 35.2668 27.7931 35.554 27.7931C37.0856 28.178 38.4257 28.9477 39.6701 30.0061C39.8616 30.1985 40.053 30.2947 40.1487 30.4871C40.9145 31.3531 40.7231 31.8341 39.6701 32.1228C37.5642 32.8925 35.7455 33.6622 34.1182 34.8168Z" fill="#EFEFEF"/>
<path d="M83.1285 50.4036C82.4585 50.2111 81.7884 50.1149 81.1183 49.9225C80.544 49.7301 80.0654 49.249 80.0654 48.5755C80.0654 47.902 80.544 47.4209 81.1183 47.2285C82.4585 46.7474 83.7986 46.7474 85.1387 47.2285C85.7131 47.4209 86.096 47.8058 86.096 48.4793C86.096 49.1528 85.8088 49.6338 85.1387 49.8263C84.5644 50.1149 83.8943 50.3073 83.1285 50.4036Z" fill="#EFEFEF"/>
<path d="M125.63 50.4036C124.864 50.2111 124.194 50.1149 123.62 49.9225C123.045 49.7301 122.662 49.249 122.662 48.5755C122.662 47.902 123.045 47.5171 123.524 47.3247C124.864 46.7474 126.3 46.7474 127.736 47.3247C128.214 47.5171 128.693 47.902 128.693 48.5755C128.693 49.249 128.31 49.7301 127.831 49.9225C127.066 50.1149 126.396 50.3073 125.63 50.4036Z" fill="#EFEFEF"/>
<path d="M24.6416 29.6212C24.7373 28.4666 25.2159 27.5045 26.2688 26.831C27.1304 26.3499 27.9919 26.7348 27.9919 27.7931C27.9919 29.0439 27.4175 30.0061 26.4603 30.6796C26.0774 30.9682 25.6945 31.0644 25.2159 30.7758C24.833 30.4871 24.6416 30.1023 24.6416 29.6212Z" fill="#EFEFEF"/>
<path d="M49.9125 44.7269C48.9553 44.7269 48.0938 43.9572 48.0938 42.8988C48.0938 41.9367 48.8596 41.0707 49.8168 41.0707C50.774 41.0707 51.6355 41.8405 51.6355 42.8988C51.7313 43.9572 50.9655 44.7269 49.9125 44.7269Z" fill="#EFEFEF"/>
<path d="M107.634 41.0707C107.634 42.0329 106.868 42.8026 105.911 42.8026C104.953 42.8026 104.188 42.0329 104.188 41.0707C104.188 40.1086 104.953 39.3389 105.911 39.3389C106.868 39.3389 107.634 40.1086 107.634 41.0707Z" fill="#EFEFEF"/>
<path d="M143.817 40.5897C142.86 40.5897 142.094 39.82 142.094 38.8578C142.094 37.8957 142.86 37.1259 143.817 37.1259C144.774 37.1259 145.54 37.8957 145.54 38.8578C145.54 39.7237 144.774 40.5897 143.817 40.5897ZM142.381 38.7616C142.381 39.5313 143.051 40.2048 143.817 40.301C144.583 40.301 145.253 39.6275 145.253 38.8578C145.253 38.0881 144.679 37.3184 143.817 37.3184C143.051 37.3184 142.381 37.9919 142.381 38.7616Z" fill="#EFEFEF"/>
<path d="M144.2 39.0502C144.296 38.954 144.392 38.954 144.487 38.8578C144.583 38.7616 144.583 38.6654 144.583 38.5692C144.583 38.4729 144.583 38.3767 144.487 38.2805C144.392 38.1843 144.392 38.0881 144.296 38.0881C144.2 37.9919 144.104 37.9919 143.913 37.9919H143.147V39.7237H143.53V39.0502H143.817L144.2 39.7237H144.583L144.2 39.0502ZM143.53 38.1843H143.817C143.913 38.1843 143.913 38.1843 144.009 38.1843C144.104 38.1843 144.104 38.2805 144.104 38.2805C144.104 38.2805 144.104 38.3767 144.104 38.4729C144.104 38.5692 144.104 38.5692 144.104 38.6654L144.009 38.7616C143.913 38.7616 143.913 38.7616 143.817 38.7616H143.53V38.1843Z" fill="#EFEFEF"/>
<path d="M25.7158 79.2985V72.8853H27.6912C28.1567 72.8853 28.5763 72.9619 28.9499 73.115C29.3236 73.262 29.6421 73.4764 29.9055 73.7582C30.1689 74.0338 30.371 74.3677 30.5119 74.7597C30.6528 75.1517 30.7232 75.5897 30.7232 76.0736C30.7232 76.5636 30.6528 77.0077 30.5119 77.4058C30.371 77.7978 30.1689 78.1378 29.9055 78.4257C29.6421 78.7074 29.3236 78.9249 28.9499 79.078C28.5763 79.225 28.1567 79.2985 27.6912 79.2985H25.7158ZM26.6897 78.4716H27.6912C28.1077 78.4716 28.466 78.3736 28.7662 78.1776C29.0663 77.9755 29.296 77.6937 29.4553 77.3323C29.6206 76.9709 29.7033 76.5513 29.7033 76.0736C29.7033 75.5897 29.6206 75.1731 29.4553 74.824C29.296 74.4687 29.0663 74.1962 28.7662 74.0063C28.466 73.8103 28.1077 73.7122 27.6912 73.7122H26.6897V78.4716Z" fill="white"/>
<path d="M32.5919 77.6814V76.8545H36.1477V77.6814H32.5919ZM33.621 72.8853H35.0176L37.0022 79.2985H36.0007L34.7052 75.0537L34.3193 73.6479L33.9334 75.0629L32.6195 79.2985H31.6364L33.621 72.8853Z" fill="white"/>
<path d="M38.2002 79.2985V72.8853H39.413L42.0867 78.0306L42.0132 76.046V72.8853H42.9504V79.2985H41.7467L39.0547 74.2084L39.1374 76.1287V79.2985H38.2002Z" fill="white"/>
<path d="M48.09 75.9357C48.3228 76.0031 48.528 76.1042 48.7056 76.2389C48.8894 76.3737 49.0333 76.5483 49.1375 76.7626C49.2477 76.9709 49.3028 77.2159 49.3028 77.4977C49.3028 77.8591 49.211 78.1745 49.0272 78.4441C48.8496 78.7136 48.5954 78.9249 48.2646 79.078C47.9338 79.225 47.5418 79.2985 47.0885 79.2985H44.6078V72.8853H46.9967C47.6704 72.8853 48.1972 73.0323 48.577 73.3264C48.9568 73.6204 49.1466 74.0063 49.1466 74.484C49.1466 74.7107 49.1038 74.922 49.018 75.118C48.9384 75.314 48.8189 75.4825 48.6597 75.6233C48.5004 75.7642 48.3105 75.8684 48.09 75.9357ZM46.9507 73.7122H45.5817V75.605H46.9507C47.3121 75.605 47.5969 75.5161 47.8052 75.3385C48.0196 75.1609 48.1268 74.9251 48.1268 74.631C48.1268 74.3431 48.0196 74.1196 47.8052 73.9603C47.5908 73.7949 47.306 73.7122 46.9507 73.7122ZM45.5817 78.4716H47.0702C47.4438 78.4716 47.7378 78.3797 47.9522 78.196C48.1727 78.0122 48.283 77.7641 48.283 77.4518C48.283 77.1271 48.1666 76.876 47.9338 76.6983C47.7072 76.5207 47.3887 76.4319 46.9783 76.4319H45.5817V78.4716Z" fill="white"/>
<path d="M53.0827 79.4088C52.5804 79.4088 52.1425 79.3108 51.7688 79.1148C51.3952 78.9126 51.1042 78.6339 50.896 78.2787C50.6877 77.9173 50.5836 77.4977 50.5836 77.0199V72.8853H51.5667V77.0199C51.5667 77.3323 51.6279 77.6049 51.7504 77.8376C51.8791 78.0704 52.0567 78.2511 52.2833 78.3797C52.51 78.5084 52.7764 78.5727 53.0827 78.5727C53.389 78.5727 53.6523 78.5084 53.8729 78.3797C54.0995 78.2511 54.2741 78.0704 54.3966 77.8376C54.5252 77.6049 54.5895 77.3323 54.5895 77.0199V72.8853H55.5726V77.0199C55.5726 77.4977 55.4685 77.9173 55.2602 78.2787C55.052 78.6339 54.761 78.9126 54.3874 79.1148C54.0199 79.3108 53.585 79.4088 53.0827 79.4088Z" fill="white"/>
<path d="M57.8181 76.6156V75.7887H59.4444C59.7139 75.7887 59.9497 75.7458 60.1518 75.6601C60.3601 75.5682 60.5224 75.4396 60.6388 75.2742C60.7613 75.1088 60.8225 74.9189 60.8225 74.7045C60.8225 74.4963 60.7705 74.3187 60.6664 74.1716C60.5622 74.0246 60.4213 73.9113 60.2437 73.8317C60.0661 73.7521 59.867 73.7122 59.6465 73.7122H57.8181V72.8853H59.6465C60.0691 72.8853 60.4458 72.9588 60.7766 73.1058C61.1074 73.2467 61.3677 73.4519 61.5576 73.7214C61.7475 73.991 61.8424 74.3186 61.8424 74.7045C61.8424 74.9496 61.7842 75.1854 61.6678 75.412C61.5576 75.6387 61.3953 75.8439 61.1809 76.0276C60.9726 76.2053 60.7184 76.3492 60.4183 76.4594C60.1181 76.5636 59.7782 76.6156 59.3984 76.6156H57.8181ZM57.1198 79.2985V72.8853H58.0937V79.2985H57.1198ZM60.8042 79.2985C60.7674 79.0106 60.6878 78.7258 60.5653 78.4441C60.4489 78.1623 60.2896 77.8928 60.0875 77.6355C59.8854 77.3782 59.6342 77.1394 59.3341 76.9189C59.0401 76.6983 58.6971 76.4993 58.305 76.3216L59.3892 76.0827C59.7935 76.2849 60.1396 76.5115 60.4275 76.7626C60.7215 77.0077 60.9634 77.268 61.1533 77.5436C61.3493 77.8193 61.4963 78.1041 61.5943 78.3981C61.6985 78.6921 61.7658 78.9923 61.7965 79.2985H60.8042Z" fill="white"/>
<path d="M65.071 79.2985V76.6983L62.9486 72.8853H64.0144L65.0067 74.6494L65.5763 75.853L66.1552 74.6402L67.1475 72.8853H68.2041L66.0449 76.6983V79.2985H65.071Z" fill="white"/>
<path d="M75.8005 79.2985V72.8853H80.4496V73.7122H76.7744V75.559H79.3195V76.3859H76.7744V79.2985H75.8005Z" fill="white"/>
<path d="M82.6032 77.6814V76.8545H86.1589V77.6814H82.6032ZM83.6322 72.8853H85.0288L87.0134 79.2985H86.0119L84.7164 75.0537L84.3305 73.6479L83.9446 75.0629L82.6308 79.2985H81.6476L83.6322 72.8853Z" fill="white"/>
<path d="M90.095 79.2985V72.8853H91.0689V79.2985H90.095ZM88.4871 72.8853H92.6676V73.7122H88.4871V72.8853ZM88.4871 78.4716H92.6676V79.2985H88.4871V78.4716Z" fill="white"/>
<path d="M95.3265 76.6156V75.7887H96.9528C97.2223 75.7887 97.4581 75.7458 97.6603 75.6601C97.8685 75.5682 98.0308 75.4396 98.1472 75.2742C98.2697 75.1088 98.331 74.9189 98.331 74.7045C98.331 74.4963 98.2789 74.3187 98.1748 74.1716C98.0707 74.0246 97.9298 73.9113 97.7521 73.8317C97.5745 73.7521 97.3754 73.7122 97.1549 73.7122H95.3265V72.8853H97.1549C97.5776 72.8853 97.9543 72.9588 98.285 73.1058C98.6158 73.2467 98.8761 73.4519 99.066 73.7214C99.2559 73.991 99.3509 74.3186 99.3509 74.7045C99.3509 74.9496 99.2927 75.1854 99.1763 75.412C99.066 75.6387 98.9037 75.8439 98.6893 76.0276C98.4811 76.2053 98.2269 76.3492 97.9267 76.4594C97.6266 76.5636 97.2866 76.6156 96.9069 76.6156H95.3265ZM94.6282 79.2985V72.8853H95.6022V79.2985H94.6282ZM98.3126 79.2985C98.2759 79.0106 98.1962 78.7258 98.0737 78.4441C97.9573 78.1623 97.7981 77.8928 97.5959 77.6355C97.3938 77.3782 97.1427 77.1394 96.8425 76.9189C96.5485 76.6983 96.2055 76.4993 95.8135 76.3216L96.8977 76.0827C97.3019 76.2849 97.648 76.5115 97.9359 76.7626C98.2299 77.0077 98.4719 77.268 98.6617 77.5436C98.8577 77.8193 99.0048 78.1041 99.1028 78.3981C99.2069 78.6921 99.2743 78.9923 99.3049 79.2985H98.3126Z" fill="white"/>
<path d="M106.589 79.2985L107.067 72.8853H108.344L109.162 76.68L109.355 77.9295L109.557 76.68L110.356 72.8853H111.615L112.102 79.2985H111.137L110.926 75.2834L110.889 73.8684L110.613 75.2834L109.74 79.2985H108.914L108.05 75.2834L107.793 73.8501L107.737 75.2834L107.535 79.2985H106.589Z" fill="white"/>
<path d="M113.86 77.6814V76.8545H117.416V77.6814H113.86ZM114.889 72.8853H116.286L118.27 79.2985H117.269L115.973 75.0537L115.588 73.6479L115.202 75.0629L113.888 79.2985H112.905L114.889 72.8853Z" fill="white"/>
<path d="M119.864 79.2985V72.8853H120.837V78.4716H124.2V79.2985H119.864Z" fill="white"/>
<path d="M126.115 79.2985V72.8853H127.089V78.4716H130.452V79.2985H126.115Z" fill="white"/>
</svg>
