<svg width="94" height="85" viewBox="0 0 94 85" fill="none" xmlns="http://www.w3.org/2000/svg">
<path d="M8.57776 69.7608C9.13358 69.8937 9.44774 70.1837 9.44774 70.7274C9.44774 71.6819 8.84359 71.9719 7.52051 71.9719H4.97705V67.7429H7.64738C8.66235 67.7429 9.29066 67.9785 9.29066 68.8304C9.29066 69.3258 9.03692 69.5976 8.57776 69.7305V69.7608ZM7.69571 68.492H5.94973V69.4889H7.69571C8.11861 69.4889 8.35423 69.3499 8.35423 68.9874C8.35423 68.625 8.08841 68.492 7.69571 68.492ZM7.71988 71.2288C8.28173 71.2288 8.45694 71.0113 8.45694 70.6549C8.45694 70.2984 8.19715 70.1837 7.71988 70.1837H5.94973V71.2288H7.71988Z" fill="white"/>
<path d="M14.721 71.9719H13.6396L12.7454 70.5401C12.7394 70.5401 12.7273 70.5401 12.7213 70.5401H11.2049V71.9719H10.2322V67.7429H12.8421C13.99 67.7429 14.582 68.2927 14.582 69.1445C14.582 69.8091 14.2679 70.2078 13.7121 70.4012L14.721 71.9719ZM11.2049 68.492V69.803H12.8058C13.3979 69.803 13.5912 69.4949 13.5912 69.1445C13.5912 68.782 13.41 68.492 12.8058 68.492H11.2049Z" fill="white"/>
<path d="M19.0951 71.9719L18.7386 71.1443H16.4187L16.0562 71.9719H15.0231L16.9805 67.7429H18.1768L20.1282 71.9719H19.0951ZM16.7449 70.4012H18.4124L17.5787 68.48L16.7449 70.4012Z" fill="white"/>
<path d="M24.1622 67.7429H25.1409V71.9719H24.0474L21.7033 68.9512V71.9719H20.7306V67.7429H21.8181L24.1622 70.7697V67.7429Z" fill="white"/>
<path d="M28.0899 67.7429C29.4069 67.7429 30.6394 68.1719 30.6394 69.8574C30.6394 71.543 29.4069 71.9719 28.0899 71.9719H26.1687V67.7429H28.0899ZM27.9932 71.2228C29.0021 71.2228 29.6425 70.9509 29.6425 69.8574C29.6425 68.77 29.0021 68.492 27.9932 68.492H27.1474V71.2228H27.9932Z" fill="white"/>
<path d="M33.7075 67.6583C34.9279 67.6583 36.2268 68.2443 36.2268 69.8574C36.2268 71.4765 34.9279 72.0626 33.7075 72.0626C32.4871 72.0626 31.1821 71.4765 31.1821 69.8574C31.1821 68.2443 32.4871 67.6583 33.7075 67.6583ZM33.7075 71.3255C34.7587 71.3255 35.236 70.6911 35.236 69.8574C35.236 69.0297 34.7587 68.3954 33.7075 68.3954C32.6563 68.3954 32.179 69.0297 32.179 69.8574C32.179 70.6911 32.6563 71.3255 33.7075 71.3255Z" fill="white"/>
<path d="M40.4409 67.7429H41.4196V71.9719H40.3261L37.982 68.9512V71.9719H37.0093V67.7429H38.0968L40.4409 70.7697V67.7429Z" fill="white"/>
<path d="M48.0374 68.492H45.2945V69.5433H47.8622V70.2864H45.2945V71.9719H44.3219V67.7429H48.0374V68.492Z" fill="white"/>
<path d="M51.1055 67.6583C52.3259 67.6583 53.6248 68.2443 53.6248 69.8574C53.6248 71.4765 52.3259 72.0626 51.1055 72.0626C49.8851 72.0626 48.5802 71.4765 48.5802 69.8574C48.5802 68.2443 49.8851 67.6583 51.1055 67.6583ZM51.1055 71.3255C52.1567 71.3255 52.634 70.6911 52.634 69.8574C52.634 69.0297 52.1567 68.3954 51.1055 68.3954C50.0543 68.3954 49.577 69.0297 49.577 69.8574C49.577 70.6911 50.0543 71.3255 51.1055 71.3255Z" fill="white"/>
<path d="M58.8961 71.9719H57.8147L56.9206 70.5401C56.9145 70.5401 56.9025 70.5401 56.8964 70.5401H55.38V71.9719H54.4073V67.7429H57.0173C58.1651 67.7429 58.7572 68.2927 58.7572 69.1445C58.7572 69.8091 58.443 70.2078 57.8872 70.4012L58.8961 71.9719ZM55.38 68.492V69.803H56.981C57.5731 69.803 57.7664 69.4949 57.7664 69.1445C57.7664 68.782 57.5851 68.492 56.981 68.492H55.38Z" fill="white"/>
<path d="M63.4362 67.7429V68.492H61.8352V71.9719H60.8625V68.492H59.2615V67.7429H63.4362Z" fill="white"/>
<path d="M67.4898 67.7429H68.4625V70.2622C68.4625 71.7424 67.508 72.0626 66.342 72.0626C65.182 72.0626 64.2214 71.7424 64.2214 70.2622V67.7429H65.1941V70.2018C65.1941 71.0657 65.617 71.3255 66.342 71.3255C67.0669 71.3255 67.4898 71.0657 67.4898 70.2018V67.7429Z" fill="white"/>
<path d="M72.9199 67.7429H73.8986V71.9719H72.8051L70.461 68.9512V71.9719H69.4883V67.7429H70.5758L72.9199 70.7697V67.7429Z" fill="white"/>
<path d="M78.5754 71.9719L78.219 71.1443H75.899L75.5366 71.9719H74.5035L76.4609 67.7429H77.6571L79.6085 71.9719H78.5754ZM76.2253 70.4012H77.8927L77.059 68.48L76.2253 70.4012Z" fill="white"/>
<path d="M83.3593 67.7429V68.492H81.7583V71.9719H80.7857V68.492H79.1847V67.7429H83.3593Z" fill="white"/>
<path d="M86.2453 67.6583C87.4657 67.6583 88.7646 68.2443 88.7646 69.8574C88.7646 71.4765 87.4657 72.0626 86.2453 72.0626C85.025 72.0626 83.72 71.4765 83.72 69.8574C83.72 68.2443 85.025 67.6583 86.2453 67.6583ZM86.2453 71.3255C87.2966 71.3255 87.7738 70.6911 87.7738 69.8574C87.7738 69.0297 87.2966 68.3954 86.2453 68.3954C85.1941 68.3954 84.7169 69.0297 84.7169 69.8574C84.7169 70.6911 85.1941 71.3255 86.2453 71.3255Z" fill="white"/>
<path d="M22.2188 79.2259C23.0948 79.2259 23.4512 78.7486 23.5781 78.1988H24.587C24.3877 79.4554 23.3183 79.9629 22.2188 79.9629C20.9984 79.9629 19.8143 79.3467 19.8143 77.7578C19.8143 76.1689 20.9984 75.5587 22.2188 75.5587C23.3183 75.5587 24.3877 76.0662 24.587 77.3228H23.5781C23.4512 76.773 23.0948 76.2958 22.2188 76.2958C21.2038 76.2958 20.8111 76.9422 20.8111 77.7578C20.8111 78.5794 21.2038 79.2259 22.2188 79.2259Z" fill="white"/>
<path d="M29.8589 79.8723H28.7775L27.8833 78.4405C27.8773 78.4405 27.8652 78.4405 27.8591 78.4405H26.3427V79.8723H25.3701V75.6433H27.98C29.1279 75.6433 29.7199 76.1931 29.7199 77.0449C29.7199 77.7095 29.4058 78.1082 28.85 78.3015L29.8589 79.8723ZM26.3427 76.3924V77.7034H27.9437C28.5358 77.7034 28.7291 77.3953 28.7291 77.0449C28.7291 76.6824 28.5479 76.3924 27.9437 76.3924H26.3427Z" fill="white"/>
<path d="M34.2329 79.8723L33.8765 79.0446H31.5566L31.1941 79.8723H30.161L32.1184 75.6433H33.3146L35.266 79.8723H34.2329ZM31.8828 78.3015H33.5503L32.7165 76.3803L31.8828 78.3015Z" fill="white"/>
<path d="M35.8685 75.6433H36.8412V79.8723H35.8685V75.6433Z" fill="white"/>
<path d="M42.5249 77.4738C42.6518 79.1715 41.661 79.9629 40.1869 79.9629C38.8336 79.9629 37.6253 79.3044 37.6253 77.7578C37.6253 76.2172 38.8698 75.5587 40.0842 75.5587C41.1656 75.5587 42.1201 75.9997 42.4162 76.9966H41.3952C41.2018 76.5918 40.8091 76.2958 40.0842 76.2958C39.0752 76.2958 38.6161 76.9482 38.6161 77.7578C38.6161 78.5734 39.1538 79.2259 40.1929 79.2259C41.1777 79.2259 41.4858 78.6519 41.5281 78.2169H40.1385V77.4738H42.5249Z" fill="white"/>
<path d="M49.3899 75.6433H50.9064V79.8723H49.9337V76.5314L48.5139 79.8723H47.5896L46.1698 76.5314V79.8723H45.1972V75.6433H46.7136L48.0487 78.8936L49.3899 75.6433Z" fill="white"/>
<path d="M55.5822 79.8723L55.2258 79.0446H52.9058L52.5434 79.8723H51.5103L53.4677 75.6433H54.6639L56.6153 79.8723H55.5822ZM53.2321 78.3015H54.8995L54.0658 76.3803L53.2321 78.3015Z" fill="white"/>
<path d="M61.7066 79.8723H60.6252L59.7311 78.4405C59.725 78.4405 59.7129 78.4405 59.7069 78.4405H58.1905V79.8723H57.2178V75.6433H59.8277C60.9756 75.6433 61.5677 76.1931 61.5677 77.0449C61.5677 77.7095 61.2535 78.1082 60.6977 78.3015L61.7066 79.8723ZM58.1905 76.3924V77.7034H59.7915C60.3835 77.7034 60.5769 77.3953 60.5769 77.0449C60.5769 76.6824 60.3956 76.3924 59.7915 76.3924H58.1905Z" fill="white"/>
<path d="M66.2466 75.6433V76.3924H64.6456V79.8723H63.673V76.3924H62.072V75.6433H66.2466Z" fill="white"/>
<path d="M67.0319 75.6433H68.0046V79.8723H67.0319V75.6433Z" fill="white"/>
<path d="M72.4618 75.6433H73.4406V79.8723H72.3471L70.003 76.8516V79.8723H69.0303V75.6433H70.1178L72.4618 78.6701V75.6433Z" fill="white"/>
<g clip-path="url(#clip0_336_1149)">
<path fill-rule="evenodd" clip-rule="evenodd" d="M62.3301 59.2366C62.3301 59.4708 62.2848 59.7027 62.1968 59.919C62.1088 60.1353 61.9798 60.3319 61.8171 60.4974C61.6545 60.663 61.4614 60.7943 61.2488 60.8839C61.0363 60.9734 60.8085 61.0195 60.5785 61.0194C60.2321 61.0194 59.8935 60.9148 59.6054 60.7189C59.3174 60.5229 59.0929 60.2444 58.9603 59.9186C58.8278 59.5928 58.7931 59.2342 58.8607 58.8883C58.9283 58.5425 59.0952 58.2247 59.3401 57.9754C59.5851 57.726 59.8972 57.5562 60.237 57.4875C60.5768 57.4187 60.929 57.4541 61.249 57.5891C61.5691 57.7241 61.8426 57.9527 62.035 58.2459C62.2274 58.5392 62.3301 58.884 62.3301 59.2366Z" fill="#EFEFEF"/>
<path fill-rule="evenodd" clip-rule="evenodd" d="M46.8232 62.4037C45.6273 59.8807 39.7091 59.2466 37.3908 59.2041C37.3908 59.2041 37.3217 59.1987 37.2103 59.1886C37.2103 59.1886 35.3003 58.8713 35.2885 58.8152C20.2363 53.6308 21.3767 41.1439 24.3519 33.4687C27.4869 25.3834 21.1826 16.7967 21.1826 16.7967C32.3412 18.1789 30.2946 7.01819 30.2946 7.01819C40.7362 17.3312 46.8232 7.06231 46.8232 7.06231C46.8232 7.06231 53.086 17.1547 63.4926 7.0538C63.4926 7.0538 61.2374 17.7201 72.3145 16.873C72.3145 16.873 65.9843 25.4786 69.3337 33.4097C72.7928 41.5996 72.7903 53.4146 57.7378 58.599C57.7263 58.6551 55.7142 59.1889 55.7142 59.1889C55.6024 59.199 55.5334 59.2044 55.5334 59.2044C53.2147 59.2466 48.0184 59.8807 46.8232 62.4037Z" fill="#EFEFEF"/>
<path fill-rule="evenodd" clip-rule="evenodd" d="M46.8265 61.4334C45.6826 58.9993 40.3674 58.5612 38.1503 58.52L37.9773 58.5055C37.9773 58.5055 36.1509 58.1988 36.1394 58.1446C21.7428 53.1427 21.9484 41.5757 25.2567 33.6729C28.4601 26.0203 22.6474 17.601 22.6474 17.601C32.711 17.8601 30.9969 8.70142 30.9969 8.70142C39.7381 17.7334 46.8268 8.96677 46.8268 8.96677C46.8268 8.96677 53.9149 17.7334 62.6557 8.70142C62.6557 8.70142 60.9423 17.8601 71.005 17.601C71.005 17.601 65.1923 26.02 68.396 33.6729C71.7046 41.5757 72.0086 52.9334 57.6114 57.9354C57.5999 57.9899 55.6754 58.5055 55.6754 58.5055L55.5023 58.52C53.2852 58.5612 47.97 58.9993 46.8265 61.4334Z" fill="#171717"/>
<path fill-rule="evenodd" clip-rule="evenodd" d="M46.8266 58.1125C44.3913 56.5188 40.6515 56.2535 40.6515 56.2535C25.1052 54.4528 24.0889 43.1177 27.3445 35.6212C30.9971 27.2084 26.1264 19.7702 26.1264 19.7702C31.345 17.7334 32.8235 13.3057 32.8235 13.3057C41.0858 18.9732 46.8266 12.5975 46.8266 12.5975C46.8266 12.5975 52.5669 18.9732 60.8291 13.3057C60.8291 13.3057 62.3079 17.7334 67.5259 19.7702C67.5259 19.7702 62.6559 27.2084 66.3087 35.6212C69.5647 43.1177 68.5475 54.4528 53.0012 56.2535C53.0012 56.2532 49.2617 56.5188 46.8266 58.1125Z" fill="#EFEFEF"/>
<path fill-rule="evenodd" clip-rule="evenodd" d="M28.0403 38.0115C25.9526 41.9968 27.779 53.4201 39.5205 54.3935C39.5205 54.3935 45.522 55.0134 46.8268 56.6074C48.131 55.0131 54.1325 54.3935 54.1325 54.3935C56.1731 54.2246 57.9144 53.7387 59.388 53.0321L29.9809 33.1C29.5791 34.6234 28.9554 36.2641 28.0403 38.0115ZM65.613 38.0115C59.9356 27.1744 65.4824 20.4345 65.4824 20.4345C61.7428 19.1944 60.2204 15.2539 60.2204 15.2539C53.2626 20.4783 46.8268 14.2798 46.8268 14.2798C46.8268 14.2798 40.3903 20.4783 33.432 15.2539C33.432 15.2539 33.3617 15.4357 33.2146 15.7329L65.8709 38.5964C65.7972 38.3961 65.711 38.2007 65.613 38.0115ZM32.4862 16.9812C31.66 18.2027 30.2626 19.7409 28.1706 20.4345C28.1706 20.4345 31.5712 24.5666 30.3218 31.5631L60.7479 52.2714C65.2468 49.361 66.6658 44.1675 66.3055 40.573L32.4862 16.9812ZM39.6078 35.2666L37.4337 33.8495L34.1285 25.4377L33.7805 31.2817L32.476 30.485L32.6878 19.917L34.5142 21.3336L37.868 29.5995L38.042 23.7548L39.6941 24.906L39.6078 35.2666ZM50.132 42.3504L48.4789 41.2877V36.8606L43.7822 33.6727V38.2769L42.3038 37.2145L42.2768 26.6494L43.8423 27.6235L43.8692 31.7248L48.4789 34.5585L48.4384 30.8751L50.132 32.1675V42.3504ZM59.4381 48.7263L53.0014 44.476L53.0883 34.0269L54.4801 35.001V43.5019L59.6121 46.9559L59.4381 48.7263Z" fill="#171717"/>
<path fill-rule="evenodd" clip-rule="evenodd" d="M65.8712 38.5967L33.215 15.7332C33.0002 16.1656 32.7567 16.5826 32.4863 16.9814L66.3056 40.5729C66.2322 39.8355 66.0842 39.1665 65.8712 38.5967ZM29.981 33.1003L59.388 53.0324C59.8566 52.8081 60.3108 52.554 60.748 52.2716L30.3215 31.5634C30.2289 32.0802 30.1153 32.593 29.981 33.1003ZM37.8681 29.5997L34.5143 21.3339L32.6878 19.9173L32.4761 30.4853L33.7806 31.2819L34.1286 25.4379L37.4338 33.8497L39.6078 35.2669L39.6945 24.9063L38.0424 23.7551L37.8681 29.5997ZM48.479 34.5588L43.8693 31.725L43.8424 27.6238L42.2772 26.6497L42.3041 37.2148L43.7823 38.2771V33.6729L48.479 36.8609V41.288L50.1321 42.3507V32.1675L48.4385 30.8751L48.479 34.5588ZM54.4805 35.0009L53.0884 34.0268L53.0014 44.476L59.4382 48.7266L59.6125 46.9555L54.4805 43.5019V35.0009Z" fill="#EFEFEF"/>
<path fill-rule="evenodd" clip-rule="evenodd" d="M60.2989 58.5955H60.5457C60.6908 58.5955 60.7967 58.6176 60.8623 58.6624C60.927 58.7071 60.9602 58.7786 60.9602 58.8757C60.9602 58.9665 60.9286 59.0323 60.8664 59.073C60.8041 59.1143 60.6995 59.1344 60.5531 59.1344H60.2986L60.2989 58.5955ZM61.1728 59.1322C61.2375 59.0547 61.27 58.958 61.27 58.8426C61.27 58.6945 61.2137 58.5836 61.1019 58.5086C60.9896 58.4342 60.8227 58.397 60.5995 58.397H59.9974V60.0212H60.2992V59.3286H60.5961L60.9202 60.0212H61.2623L60.9013 59.2797C61.0174 59.2599 61.1081 59.2101 61.1728 59.1322ZM61.6944 59.72C61.6345 59.8679 61.546 60.0021 61.4344 60.1148C61.3158 60.2333 61.1806 60.3235 61.0292 60.3862C60.8775 60.4492 60.719 60.4804 60.5534 60.4804C60.398 60.4804 60.2457 60.4479 60.0962 60.3833C59.9475 60.3187 59.8124 60.2255 59.6984 60.1089C59.5861 59.9941 59.4969 59.8582 59.4359 59.7086C59.3745 59.5593 59.3431 59.399 59.3433 59.2372C59.3433 59.0714 59.3749 58.9107 59.4396 58.7566C59.5025 58.6024 59.5945 58.4624 59.7105 58.3444C59.82 58.2308 59.9513 58.1412 60.0962 58.0812C60.2432 58.021 60.3992 57.9898 60.5642 57.9898C60.8897 57.9891 61.2024 58.1192 61.4341 58.3519C61.5483 58.4714 61.6359 58.6075 61.696 58.7594C61.7557 58.9119 61.7855 59.0752 61.7855 59.2488C61.7865 59.4105 61.7555 59.5707 61.6944 59.72ZM59.9479 57.9435C59.7569 58.0381 59.5901 58.1767 59.4606 58.3482C59.363 58.4763 59.2864 58.6198 59.234 58.773C59.1478 59.0249 59.1334 59.2966 59.1924 59.5565C59.2515 59.8164 59.3816 60.054 59.5677 60.2418C59.7027 60.3802 59.8563 60.4867 60.0296 60.5614C60.1989 60.6345 60.3809 60.6722 60.5649 60.6723C60.7475 60.6723 60.9246 60.6361 61.0964 60.562C61.2703 60.4879 61.4288 60.3806 61.5632 60.2459C61.6969 60.1148 61.7991 59.9629 61.8684 59.7896C61.9387 59.6166 61.9737 59.4326 61.9737 59.2381C61.9737 59.0134 61.9266 58.8023 61.831 58.6034C61.7508 58.4343 61.6382 58.2831 61.4998 58.1589C61.3614 58.0346 61.2 57.9398 61.0252 57.8799C60.8769 57.8291 60.7215 57.8035 60.5652 57.8039C60.3516 57.8017 60.1404 57.8494 59.9479 57.9435Z" fill="black"/>
</g>
<defs>
<clipPath id="clip0_336_1149">
<rect width="59.6703" height="60.7454" fill="white" transform="translate(16.9135 4.34082)"/>
</clipPath>
</defs>
</svg>
