<svg width="164" height="85" viewBox="0 0 164 85" fill="none" xmlns="http://www.w3.org/2000/svg">
<path d="M54.5937 9.72729L43.2664 30.5978C38.4609 27.931 36.6302 21.6699 39.3762 16.8001L43.2664 9.72729H54.5937Z" fill="#D1D1D1"/>
<path d="M34.685 46.3667L34.4562 45.9029L34.2273 45.671L33.7697 44.9753L30.1083 38.8301L12.7169 9.84324L24.3875 9.72729L36.1724 29.3224L38.0031 32.337C40.978 37.2068 39.4905 43.468 34.685 46.3667Z" fill="#D1D1D1"/>
<path d="M34.2273 45.5549L33.8841 44.8593L34.2273 45.5549Z" fill="#D1D1D1"/>
<path d="M45.4403 39.4097C45.4403 38.3662 45.6692 37.3227 46.0124 36.511C46.3557 35.6994 46.8133 34.8878 47.4999 34.308C48.1864 33.7283 48.8729 33.2645 49.7882 32.9167C50.7035 32.5688 51.6189 32.4529 52.6486 32.4529C53.6784 32.4529 54.5937 32.5688 55.5091 32.9167C56.4244 33.2645 57.1109 33.7283 57.7974 34.308C58.4839 34.8878 58.9416 35.6994 59.2849 36.511C59.6281 37.3227 59.8569 38.3662 59.8569 39.4097C59.8569 40.4533 59.6281 41.4968 59.2849 42.3084C58.9416 43.12 58.4839 43.9317 57.7974 44.5114C57.1109 45.0912 56.4244 45.5549 55.5091 45.9028C54.5937 46.2506 53.6784 46.3666 52.6486 46.3666C51.6189 46.3666 50.7035 46.2506 49.7882 45.9028C48.8729 45.5549 48.1864 45.0912 47.4999 44.5114C46.8133 43.9317 46.3557 43.12 46.0124 42.3084C45.5548 41.3808 45.4403 40.4533 45.4403 39.4097ZM48.4152 39.4097C48.4152 39.9895 48.5296 40.5692 48.7585 41.1489C48.9873 41.6127 49.2161 42.0765 49.5594 42.5403C49.9026 42.8881 50.3603 43.236 50.818 43.4679C51.2756 43.6998 51.8477 43.8157 52.5342 43.8157C53.1063 43.8157 53.6784 43.6998 54.2505 43.4679C54.7082 43.236 55.1658 43.0041 55.5091 42.5403C55.8523 42.1925 56.1956 41.7287 56.31 41.1489C56.5388 40.6852 56.6532 40.1054 56.6532 39.4097C56.6532 38.83 56.5388 38.2503 56.31 37.6705C56.0812 37.0908 55.8523 36.7429 55.5091 36.2791C55.1658 35.9313 54.7082 35.5835 54.2505 35.3516C53.7928 35.1197 53.2207 35.0037 52.5342 35.0037C51.9621 35.0037 51.39 35.1197 50.818 35.3516C50.3603 35.5835 49.9026 35.8154 49.5594 36.2791C49.2161 36.627 48.8729 37.0908 48.7585 37.6705C48.5296 38.1343 48.4152 38.714 48.4152 39.4097Z" fill="#D1D1D1"/>
<path d="M73.2439 40.9171C73.2439 41.7287 73.1295 42.4244 72.9006 43.1201C72.6718 43.8158 72.3286 44.3955 71.8709 44.8593C71.4132 45.3231 70.8411 45.7869 70.1546 46.0188C69.4681 46.2507 68.6672 46.4826 67.7519 46.4826C66.8365 46.4826 66.0356 46.3666 65.3491 46.0188C64.6626 45.7869 64.0905 45.3231 63.6328 44.8593C63.1752 44.3955 62.8319 43.8158 62.6031 43.1201C62.2598 42.4244 62.1454 41.7287 62.1454 40.9171V32.6848H65.0058V40.8011C65.0058 41.2649 65.1203 41.6128 65.2347 41.9606C65.3491 42.3085 65.5779 42.6563 65.8068 42.8882C66.0356 43.1201 66.3788 43.352 66.6077 43.4679C66.9509 43.5839 67.2942 43.6998 67.6374 43.6998C67.9807 43.6998 68.3239 43.5839 68.6672 43.4679C69.0104 43.352 69.2393 43.1201 69.4681 42.8882C69.697 42.6563 69.9258 42.3085 70.0402 41.9606C70.1546 41.6128 70.269 41.2649 70.269 40.8011V32.6848H73.1295V40.9171H73.2439Z" fill="#D1D1D1"/>
<path d="M82.9694 35.9314C82.7406 35.5835 82.3974 35.3516 82.0541 35.2357C81.5964 35.1197 81.2532 35.0038 80.9099 35.0038C80.6811 35.0038 80.4523 35.0038 80.2234 35.1197C79.9946 35.1197 79.7657 35.2357 79.5369 35.3516C79.3081 35.4676 79.1937 35.5835 79.0793 35.8154C78.9648 36.0473 78.8504 36.1633 78.8504 36.5111C78.8504 36.8589 78.9648 37.2068 79.3081 37.4387C79.6513 37.6706 79.9946 37.7865 80.4523 38.0184C80.9099 38.1344 81.3676 38.3663 81.9397 38.4822C82.5118 38.5982 82.9694 38.83 83.4271 39.1779C83.8848 39.4098 84.228 39.8736 84.5713 40.3374C84.9145 40.8012 85.029 41.3809 85.029 42.1925C85.029 42.8882 84.9145 43.5839 84.5713 44.1636C84.3424 44.7434 83.8848 45.2072 83.4271 45.555C82.9694 45.9028 82.3973 46.1347 81.8253 46.3666C81.2532 46.5985 80.5667 46.5985 79.8802 46.5985C79.0792 46.5985 78.2783 46.4826 77.4774 46.2507C76.6765 46.0188 76.1044 45.555 75.4179 44.9753L77.4774 42.6563C77.8207 43.0042 78.1639 43.352 78.6216 43.5839C79.0792 43.8158 79.5369 43.9317 79.9946 43.9317C80.2234 43.9317 80.4523 43.9317 80.6811 43.8158C80.9099 43.8158 81.1388 43.6998 81.3676 43.5839C81.5964 43.4679 81.7108 43.352 81.8253 43.1201C81.9397 42.8882 82.0541 42.7723 82.0541 42.5404C82.0541 42.1925 81.9397 41.8447 81.5964 41.6128C81.2532 41.3809 80.9099 41.149 80.4523 41.033C79.9946 40.9171 79.5369 40.6852 78.9648 40.5693C78.3927 40.4533 77.9351 40.2214 77.4774 39.8736C77.0197 39.6417 76.6765 39.1779 76.3332 38.83C75.99 38.3663 75.8756 37.7865 75.8756 37.0908C75.8756 36.3952 75.99 35.6995 76.3332 35.2357C76.5621 34.6559 77.0197 34.1921 77.4774 33.8443C77.9351 33.4965 78.5072 33.2646 79.0793 33.0327C79.6513 32.8008 80.3378 32.8008 80.9099 32.8008C81.5964 32.8008 82.3974 32.9167 83.0839 33.1486C83.7704 33.3805 84.4569 33.7284 84.9145 34.1922L82.9694 35.9314Z" fill="#D1D1D1"/>
<path d="M87.6605 32.6848H90.5209V46.0188H87.6605V32.6848Z" fill="#D1D1D1"/>
<path d="M102.421 36.1633C102.192 35.8154 101.734 35.5835 101.391 35.3516C100.933 35.1197 100.475 35.1197 99.9034 35.1197C99.3313 35.1197 98.8736 35.2357 98.4159 35.4676C97.9583 35.6995 97.5006 35.9314 97.1573 36.3952C96.8141 36.743 96.5852 37.2068 96.3564 37.7865C96.1276 38.3663 96.0132 38.83 96.0132 39.5257C96.0132 40.1055 96.1276 40.6852 96.3564 41.2649C96.5852 41.7287 96.8141 42.1925 97.1573 42.6563C97.5006 43.0042 97.8438 43.352 98.3015 43.5839C98.7592 43.8158 99.2168 43.9317 99.7889 43.9317C100.361 43.9317 100.933 43.8158 101.391 43.5839C101.848 43.352 102.192 43.0042 102.535 42.5404L104.938 44.3955C104.366 45.2072 103.679 45.7869 102.764 46.1347C101.963 46.4826 101.048 46.7145 100.132 46.7145C99.1024 46.7145 98.1871 46.5985 97.2717 46.2507C96.3564 45.9028 95.6699 45.4391 94.9834 44.8593C94.2969 44.2796 93.8392 43.4679 93.496 42.6563C93.1527 41.8447 92.9239 40.8012 92.9239 39.7576C92.9239 38.7141 93.1527 37.6706 93.496 36.8589C93.8392 36.0473 94.2969 35.2357 94.9834 34.6559C95.6699 34.0762 96.3564 33.6124 97.2717 33.2646C98.1871 32.9167 99.1024 32.8008 100.132 32.8008C100.475 32.8008 100.933 32.8008 101.276 32.9167C101.734 33.0327 102.077 33.1486 102.421 33.2646C102.764 33.3805 103.221 33.6124 103.565 33.8443C103.908 34.0762 104.251 34.424 104.48 34.7719L102.421 36.1633Z" fill="#D1D1D1"/>
<path d="M107.111 32.6848H112.031C112.718 32.6848 113.404 32.8008 113.977 32.9167C114.549 33.0327 115.121 33.2646 115.578 33.6124C116.036 33.9602 116.379 34.3081 116.608 34.8878C116.837 35.3516 116.951 36.0473 116.951 36.8589C116.951 37.6706 116.837 38.2503 116.608 38.83C116.379 39.4098 116.036 39.7576 115.578 40.1055C115.121 40.4533 114.663 40.6852 114.091 40.8011C113.519 40.9171 112.832 41.033 112.146 41.033H109.972V46.2507H107.111V32.6848ZM109.972 38.3662H111.917C112.146 38.3662 112.375 38.3662 112.718 38.2503C112.947 38.2503 113.176 38.1343 113.404 38.0184C113.633 37.9025 113.748 37.7865 113.862 37.5546C113.977 37.3227 114.091 37.0908 114.091 36.743C114.091 36.3951 113.977 36.1632 113.862 35.9313C113.748 35.6995 113.519 35.5835 113.29 35.4676C113.061 35.3516 112.832 35.2357 112.489 35.2357C112.146 35.2357 111.917 35.2357 111.688 35.2357H110.201V38.3662H109.972Z" fill="#D1D1D1"/>
<path d="M119.468 32.6848H122.329V43.352H127.707V46.0188H119.468V32.6848Z" fill="#D1D1D1"/>
<path d="M134.228 32.6848H136.631L142.352 46.0188H139.034L137.89 43.236H132.741L131.597 46.0188H128.507L134.228 32.6848ZM135.372 36.627L133.771 40.8011H136.974L135.372 36.627Z" fill="#D1D1D1"/>
<path d="M146.128 40.3373L141.208 32.6848H144.755L147.501 37.6706L150.476 32.6848H153.908L148.988 40.3373V46.0188H146.128V40.3373Z" fill="#D1D1D1"/>
<path d="M31.8246 51.7003L20.4973 72.4549C19.8108 73.1505 19.0099 74.0781 17.7513 74.5419C17.6369 74.5419 17.408 74.6579 17.2936 74.6579C14.662 75.4695 10.543 74.1941 10.3142 71.2954C10.1997 69.4402 11.8016 67.701 14.4332 66.7734C15.8062 66.3096 19.1243 66.5415 20.0396 67.9329L30.2228 49.1494L31.1381 50.6567L31.8246 51.7003Z" fill="#D1D1D1"/>
</svg>
