<svg width="191" height="85" viewBox="0 0 191 85" fill="none" xmlns="http://www.w3.org/2000/svg">
<path d="M30.7324 9.72729C31.6614 10.0074 32.3117 10.661 32.5904 11.3146C32.8691 12.2484 33.2406 13.4622 32.8691 14.6761C32.5904 17.4773 31.9401 19.905 30.7324 22.4261C29.5248 25.5074 27.6668 28.3086 25.8089 30.7364C24.8799 31.6701 23.951 32.6038 23.022 33.2574C22.3717 33.9111 21.8143 34.1912 20.8854 34.4713C20.6067 34.4713 20.2351 34.7514 19.9564 34.7514C19.0274 34.7514 18.0985 34.4713 17.8198 33.5376C17.5411 32.884 17.1695 32.3237 17.1695 31.39C17.1695 29.8026 17.1695 28.3086 17.4482 26.7213C18.6558 21.7725 21.164 17.1038 24.5083 13.4622C25.1586 12.5285 26.0876 11.9683 27.0166 11.3146C27.9455 10.661 28.8745 10.1008 30.0821 10.1008H30.7324V9.72729Z" fill="#D1D1D1"/>
<path d="M9.83063 69.7665L16.8908 55.8539C17.5411 55.8539 18.47 56.134 19.0274 56.134L25.5302 57.0677L31.6614 58.0015C32.3117 58.0015 33.2406 58.2816 33.798 58.2816C34.0767 58.2816 34.0767 58.2816 34.4483 58.2816C36.5849 58.0015 38.4429 57.628 40.5795 57.3478C42.4374 57.0677 44.2954 56.6942 46.1533 56.4141L51.0768 55.7605C51.0768 55.7605 51.0768 55.7605 51.3555 55.7605L58.4157 69.6731H58.137C56.5578 69.9533 55.0714 69.9533 53.4922 70.3268L46.9894 71.2605L40.8582 72.1942C38.7216 72.4744 36.8636 72.8479 34.727 73.128C34.4483 73.128 34.0767 73.128 33.798 73.128C31.9401 72.8479 30.0821 72.4744 28.2242 72.1942C26.3663 71.9141 24.5083 71.5406 22.6504 71.2605C20.5138 70.9804 18.6558 70.6069 16.5192 70.3268C14.3826 70.0466 12.2459 69.6732 10.388 69.393C10.1093 69.7665 9.83063 69.7665 9.83063 69.7665Z" fill="#D1D1D1"/>
<path d="M21.164 54.9201V44.3689C21.8143 44.3689 22.3717 44.649 23.022 44.649L28.5958 45.5828C30.175 45.8629 31.9401 46.2364 33.5193 46.2364C33.798 46.2364 34.1696 46.2364 34.4483 46.2364C36.5849 45.9563 38.4429 45.5828 40.5795 45.3026L46.7107 44.3689C46.7107 44.3689 46.7107 44.3689 46.9894 44.3689C46.9894 44.649 46.9894 53.9864 46.9894 54.9201C46.3391 54.9201 45.7817 55.2002 45.1314 55.2002L38.35 56.134C37.1423 56.4141 35.5631 56.4141 34.3554 56.7876C34.0767 56.7876 33.7051 56.7876 33.4264 56.7876C30.0822 56.134 26.645 55.8539 23.5794 55.2002C22.9291 55.2002 22.6504 55.2002 22.0001 54.9201C21.5356 54.9201 21.5356 54.9201 21.164 54.9201Z" fill="#D1D1D1"/>
<path d="M33.798 19.6249C34.0767 19.6249 34.0767 19.6249 33.798 19.6249C36.5849 23.9201 39.6505 27.0948 43.3664 30.1761C44.0167 30.8297 44.5741 31.1099 45.2243 31.7635C46.432 32.6972 47.0823 33.9111 47.7326 35.4984C48.3828 37.646 48.3828 39.7936 47.4539 42.0346C47.4539 42.3147 47.4539 42.3147 47.1752 42.6882L43.6451 41.9412C44.2954 41.2876 44.5741 40.7273 44.5741 39.7936C44.8528 39.14 44.8528 38.2062 44.5741 37.2725H44.2954C41.5085 37.5526 38.7216 38.2062 36.0275 38.4864C35.7489 38.4864 35.3773 38.4864 35.3773 39.14C34.727 40.0737 33.5193 40.0737 32.8691 39.14C32.5904 38.4864 32.2188 37.5526 32.8691 36.6189C33.5193 35.6852 34.4483 35.6852 35.0057 36.3388C35.0057 36.3388 35.0057 36.3388 35.2844 36.6189L43.5522 35.405C43.5522 35.405 43.5522 35.1249 43.2735 35.1249C42.6232 34.4713 42.3445 34.1912 41.6943 33.9111C40.4866 33.2574 39.186 32.9773 37.9784 32.6972C34.6341 32.0436 31.1969 31.4833 27.8526 31.4833C27.8526 31.4833 27.8526 31.4833 27.5739 31.4833C27.8526 31.2032 28.2242 30.8297 28.2242 30.5496C28.2242 30.2695 28.8745 29.896 28.8745 29.6159C29.1532 29.3358 29.1532 28.9623 29.5248 28.6821C29.8964 28.402 29.8035 28.0285 30.175 27.7484C30.4537 27.4683 30.4537 27.0948 30.8253 26.8147C31.1969 26.5345 31.104 26.161 31.4756 25.8809C31.7543 25.6008 31.7543 25.2273 32.1259 24.6671C32.4046 24.387 32.4046 24.0135 32.7762 23.4532C33.0549 22.7996 33.0548 22.7996 33.0548 22.2394C33.0548 21.9592 33.3335 21.5857 33.3335 21.0255C33.5193 20.5586 33.798 19.9984 33.798 19.6249Z" fill="#D1D1D1"/>
<path d="M34.0767 44.0888C31.9401 44.0888 30.0821 44.0888 27.9455 43.8087C27.2952 43.8087 26.7379 43.5285 26.0876 43.5285C25.8089 43.5285 25.4373 43.2484 25.4373 42.8749C25.4373 42.5014 25.4373 42.2213 25.4373 41.6611C25.4373 41.3809 25.4373 41.0075 26.0876 41.0075C26.7379 40.7273 27.0166 40.7273 27.6668 40.7273C30.7324 40.4472 33.5193 40.4472 36.5849 40.4472C38.1642 40.4472 39.3718 40.7273 40.5795 40.7273C40.8582 40.7273 41.5085 41.0075 41.7872 41.0075C42.0658 41.0075 42.0658 41.2876 42.0658 41.6611C42.0658 42.0346 42.0658 42.5948 42.0658 42.8749C42.0658 43.155 42.0658 43.5285 41.7872 43.5285C41.5085 43.5285 41.1369 43.8087 40.8582 43.8087C39.2789 44.0888 38.0713 44.0888 36.5849 44.0888C35.9347 44.3689 35.0057 44.0888 34.0767 44.0888Z" fill="#D1D1D1"/>
<path d="M83.405 32.5105C82.7547 33.3508 81.7328 34.0044 80.5252 34.4713C79.3175 34.9382 77.924 35.1249 76.3448 35.1249C74.7655 35.1249 73.3721 34.7514 72.1644 34.0978C70.9568 33.3508 70.0278 32.4171 69.3775 31.0165C68.7273 29.7092 68.3557 28.1219 68.3557 26.3478V25.0406C68.3557 23.1731 68.6344 21.5857 69.2846 20.1851C69.9349 18.7845 70.771 17.7574 71.9786 17.1038C73.1863 16.3568 74.4869 15.9833 76.0661 15.9833C78.2956 15.9833 79.9678 16.5436 81.1754 17.5707C82.3831 18.5978 83.1263 20.1851 83.405 22.146H79.6891C79.5033 21.1189 79.1317 20.2785 78.5743 19.8116C78.0169 19.3448 77.1809 19.0647 76.159 19.0647C74.8585 19.0647 73.8366 19.5315 73.1863 20.5586C72.536 21.4924 72.1644 22.9863 72.1644 24.9472V26.1611C72.1644 28.1219 72.536 29.6159 73.2792 30.5496C74.0224 31.4833 75.1371 32.0436 76.5306 32.0436C77.924 32.0436 78.9459 31.7635 79.5962 31.1099V27.9351H76.159V25.1339H83.405V32.5105Z" fill="#D1D1D1"/>
<path d="M93.3449 28.1219H90.2793V34.9382H86.4706V16.2634H93.3449C95.4816 16.2634 97.2466 16.7303 98.3614 17.7574C99.569 18.6912 100.126 20.0918 100.126 21.8659C100.126 23.1731 99.8477 24.2002 99.2903 25.0406C98.733 25.8809 97.8969 26.5345 96.7821 27.0948L100.777 34.658V34.8448H96.6892L93.3449 28.1219ZM93.3449 24.9472C94.2739 24.9472 95.0171 24.6671 95.5745 24.2002C96.1318 23.7333 96.3176 23.0797 96.3176 22.146C96.3176 21.3056 96.0389 20.5586 95.5745 20.0918C95.11 19.6249 94.2739 19.3448 93.252 19.3448H90.1864V24.9472H93.3449Z" fill="#D1D1D1"/>
<path d="M113.504 31.0165H106.815L105.514 34.8448H101.427L108.301 16.2634H111.831L118.706 34.8448H114.618L113.504 31.0165ZM107.837 27.9351H112.482L110.159 21.0255L107.837 27.9351Z" fill="#D1D1D1"/>
<path d="M125.58 16.2634L130.318 29.7092L135.056 16.2634H140.072V34.8448H136.263V29.8026L136.635 21.0255L131.618 34.8448H129.017L124.001 21.0255L124.372 29.8026V34.8448H120.564V16.2634H125.58Z" fill="#D1D1D1"/>
<path d="M148.34 16.2634L153.078 29.7092L157.815 16.2634H162.832V34.8448H158.93V29.8026L159.302 21.0255L154.285 34.8448H151.684L146.668 21.0255L147.039 29.8026V34.8448H143.231V16.2634H148.34Z" fill="#D1D1D1"/>
<path d="M172.121 24.6671L175.93 16.2634H180.111L174.072 28.1219V34.8448H170.171V28.1219L164.132 16.2634H168.313L172.121 24.6671Z" fill="#D1D1D1"/>
<path d="M79.2246 53.6129H72.536L71.2355 57.4412H67.148L74.0224 38.8599H77.5525L84.6126 57.4412H80.5252L79.2246 53.6129ZM73.5579 50.4382H78.2027L75.8803 43.5285L73.5579 50.4382Z" fill="#D1D1D1"/>
<path d="M100.219 52.0255L102.728 38.7665H106.536L102.449 57.3478H98.5472L95.5745 44.9291L92.6018 57.3478H88.793L84.6126 38.8599H88.4214L90.9296 52.0255L93.9952 38.8599H97.2466L100.219 52.0255Z" fill="#D1D1D1"/>
<path d="M118.427 53.6129H111.739L110.438 57.4412H106.351L113.225 38.8599H116.755L123.629 57.4412H119.542L118.427 53.6129ZM112.76 50.4382H117.405L115.083 43.5285L112.76 50.4382Z" fill="#D1D1D1"/>
<path d="M132.269 50.6249H129.203V57.4412H125.487V38.8599H132.362C134.498 38.8599 136.263 39.3267 137.378 40.3538C138.586 41.2876 139.143 42.6882 139.143 44.4623C139.143 45.7695 138.864 46.7966 138.307 47.637C137.75 48.4773 136.914 49.131 135.799 49.6912L139.793 57.2545V57.4412H135.706L132.269 50.6249ZM132.362 47.5436C133.291 47.5436 134.034 47.2635 134.591 46.7966C135.149 46.3298 135.334 45.6761 135.334 44.7424C135.334 43.902 135.056 43.155 134.591 42.6882C134.127 42.2213 133.291 41.9412 132.269 41.9412H129.203V47.5436H132.362Z" fill="#D1D1D1"/>
<path d="M142.023 57.4412V38.8599H147.69C149.269 38.8599 150.755 39.2334 152.056 39.9803C153.356 40.7273 154.378 41.7544 155.028 43.155C155.772 44.5556 156.143 46.0496 156.143 47.8237V48.6641C156.143 50.3448 155.772 51.9322 155.121 53.2394C154.378 54.5466 153.449 55.6671 152.149 56.3207C150.848 57.0677 149.455 57.4412 147.783 57.4412H142.023ZM145.832 54.3599H147.69C149.176 54.3599 150.291 53.893 151.127 52.8659C151.87 51.9322 152.334 50.5316 152.334 48.6641V47.637C152.334 45.7695 151.963 44.2755 151.127 43.3418C150.384 42.4081 149.176 41.8478 147.69 41.8478H145.832V54.3599Z" fill="#D1D1D1"/>
<path d="M168.499 52.4924C168.499 51.7454 168.22 51.1852 167.755 50.8117C167.291 50.4382 166.362 49.9713 164.968 49.5978C163.668 49.131 162.646 48.7575 161.81 48.2906C159.673 47.1701 158.651 45.5828 158.651 43.7153C158.651 42.6882 158.93 41.8478 159.488 41.0075C160.045 40.2605 160.881 39.6068 161.903 39.14C162.925 38.6731 164.132 38.4864 165.433 38.4864C166.733 38.4864 167.941 38.7665 168.963 39.2334C169.985 39.7002 170.821 40.3538 171.378 41.2876C171.936 42.1279 172.214 43.155 172.214 44.2755H168.406C168.406 43.4352 168.127 42.7816 167.57 42.3147C167.012 41.8478 166.269 41.5677 165.34 41.5677C164.411 41.5677 163.668 41.7544 163.203 42.1279C162.646 42.5014 162.46 43.0617 162.46 43.7153C162.46 44.2755 162.739 44.8358 163.389 45.2093C164.039 45.5828 164.876 45.9563 166.083 46.3298C168.22 46.9834 169.799 47.8237 170.821 48.7575C171.843 49.6912 172.307 50.9051 172.307 52.399C172.307 53.9864 171.657 55.2936 170.449 56.134C169.242 57.0677 167.57 57.5346 165.526 57.5346C164.132 57.5346 162.832 57.2545 161.624 56.7876C160.416 56.2274 159.58 55.5737 158.93 54.64C158.28 53.7063 158.001 52.6792 158.001 51.4653H161.81C161.81 53.5195 163.018 54.5466 165.433 54.5466C166.362 54.5466 167.012 54.3599 167.57 53.9864C168.22 53.7063 168.499 53.146 168.499 52.4924Z" fill="#D1D1D1"/>
<path d="M174.537 42.4081C174.537 41.9412 174.63 41.5677 174.816 41.1942C175.001 40.8207 175.187 40.4472 175.466 40.1671C175.744 39.887 176.116 39.6069 176.488 39.5135C176.859 39.3267 177.324 39.2334 177.695 39.2334C178.16 39.2334 178.531 39.3267 178.903 39.5135C179.275 39.7002 179.646 39.887 179.925 40.1671C180.204 40.4472 180.482 40.8207 180.575 41.1942C180.761 41.5677 180.854 42.0346 180.854 42.4081C180.854 42.8749 180.761 43.2484 180.575 43.6219C180.389 43.9954 180.204 44.3689 179.925 44.649C179.646 44.9291 179.275 45.2093 178.903 45.3026C178.531 45.4894 178.067 45.5828 177.695 45.5828C177.231 45.5828 176.859 45.4894 176.488 45.3026C176.116 45.1159 175.744 44.9291 175.466 44.649C175.187 44.3689 174.908 43.9954 174.816 43.6219C174.63 43.2484 174.537 42.8749 174.537 42.4081ZM175.187 42.4081C175.187 42.7816 175.28 43.155 175.373 43.4352C175.466 43.7153 175.744 43.9954 175.93 44.2755C176.209 44.5556 176.488 44.7424 176.766 44.8358C177.045 44.9291 177.417 45.0225 177.788 45.0225C178.16 45.0225 178.531 44.9291 178.81 44.8358C179.089 44.7424 179.367 44.4623 179.646 44.2755C179.925 43.9954 180.111 43.7153 180.204 43.4352C180.296 43.155 180.389 42.7816 180.389 42.4081C180.389 42.0346 180.296 41.6611 180.204 41.3809C180.111 41.1008 179.832 40.8207 179.646 40.5406C179.46 40.2605 179.089 40.0737 178.81 39.9803C178.531 39.887 178.16 39.7936 177.788 39.7936C177.417 39.7936 177.045 39.887 176.766 39.9803C176.488 40.0737 176.209 40.3538 175.93 40.5406C175.652 40.8207 175.466 41.1008 175.373 41.3809C175.187 41.7544 175.187 42.0346 175.187 42.4081ZM176.581 40.5406H177.974C178.438 40.5406 178.717 40.634 178.996 40.8207C179.182 41.0075 179.275 41.2876 179.275 41.6611C179.275 41.9412 179.182 42.2213 178.996 42.4081C178.81 42.5948 178.624 42.6882 178.346 42.6882L179.275 44.2755H178.531L177.602 42.7816H177.138V44.2755H176.581V40.5406ZM177.231 42.1279H177.695C177.788 42.1279 177.881 42.1279 177.974 42.1279C178.067 42.1279 178.16 42.1279 178.253 42.0346C178.346 42.0346 178.438 41.9412 178.438 41.8478C178.531 41.7544 178.531 41.6611 178.531 41.5677C178.531 41.4743 178.531 41.3809 178.438 41.2876C178.346 41.1942 178.346 41.1942 178.253 41.1008C178.16 41.1008 178.067 41.0075 177.974 41.0075C177.881 41.0075 177.788 41.0075 177.695 41.0075H177.231V42.1279Z" fill="#D1D1D1"/>
<path d="M79.148 63.9281H80.7595L77.9564 71.872H76.1293L74.2908 65.9935L72.4524 71.872H70.6366L67.8222 63.9281H69.445L71.5899 70.4989L73.644 63.9281H74.9377L77.0031 70.4989L79.148 63.9281Z" fill="#D1D1D1"/>
<path d="M82.0038 63.9281H83.3997V71.872H82.0038V63.9281Z" fill="#D1D1D1"/>
<path d="M92.0155 63.9281H93.4113V71.872H91.7431L86.9654 65.5963V71.872H85.5582V63.9281H87.2264L92.0155 70.2038V63.9281Z" fill="#D1D1D1"/>
<path d="M102.02 63.9281H103.416V71.872H101.748L96.9698 65.5963V71.872H95.5626V63.9281H97.2308L102.02 70.2038V63.9281Z" fill="#D1D1D1"/>
<path d="M105.567 63.9281H106.963V71.872H105.567V63.9281Z" fill="#D1D1D1"/>
<path d="M115.579 63.9281H116.975V71.872H115.306L110.529 65.5963V71.872H109.121V63.9281H110.79L115.579 70.2038V63.9281Z" fill="#D1D1D1"/>
<path d="M127.512 67.4688C127.717 70.374 126.116 72.0423 123.313 72.0423C120.771 72.0423 118.672 70.6464 118.672 67.9001C118.672 65.1537 120.851 63.7692 123.143 63.7692C125.22 63.7692 126.786 64.7225 127.308 66.4702H125.81C125.481 65.6985 124.777 64.9381 123.143 64.9381C121.248 64.9381 120.113 66.1638 120.113 67.9001C120.113 69.6477 121.339 70.8734 123.325 70.8734C125.311 70.8734 126.014 69.6818 126.094 68.6491H123.347V67.4688H127.512Z" fill="#D1D1D1"/>
<path d="M139.625 71.872L138.82 70.1017H134.269L133.474 71.872H131.965L135.642 63.9281H137.458L141.135 71.872H139.625ZM134.802 68.9214H138.298L136.55 65.0289L134.802 68.9214Z" fill="#D1D1D1"/>
<path d="M150.391 71.872H148.779L147.032 69.069C146.952 69.069 146.861 69.0803 146.782 69.0803H143.774V71.872H142.379V63.9281H147.236C149.21 63.9281 150.118 64.9608 150.118 66.4929C150.118 67.605 149.551 68.4335 148.427 68.8307L150.391 71.872ZM143.774 65.1083V67.9114H146.952C148.053 67.9114 148.688 67.4348 148.688 66.4929C148.688 65.5282 148.087 65.1083 146.952 65.1083H143.774Z" fill="#D1D1D1"/>
<path d="M158.719 63.9281V65.1083H155.712V71.872H154.316V65.1083H151.308V63.9281H158.719Z" fill="#D1D1D1"/>
<path d="M160.426 63.9281H161.822V71.872H160.426V63.9281Z" fill="#D1D1D1"/>
<path d="M167.748 67.2873C169.995 67.5937 171.345 67.9341 171.345 69.4775C171.345 70.9755 170.222 72.0423 167.441 72.0423C164.48 72.0423 163.299 70.9415 163.299 69.5116H164.797C164.843 70.34 165.773 70.862 167.487 70.862C168.962 70.862 169.893 70.4989 169.893 69.6477C169.893 68.6945 168.576 68.7739 166.363 68.4108C164.457 68.1044 163.572 67.4915 163.572 66.1978C163.572 64.8133 164.582 63.7692 167.203 63.7692C169.927 63.7692 170.96 65.0062 170.96 66.1411H169.53C169.462 65.5623 168.86 64.9495 167.169 64.9495C165.399 64.9495 164.979 65.4828 164.979 66.0957C164.979 66.9581 166.046 67.0489 167.748 67.2873Z" fill="#D1D1D1"/>
<path d="M179.545 63.9281V65.1083H176.537V71.872H175.142V65.1083H172.134V63.9281H179.545Z" fill="#D1D1D1"/>
</svg>
